G04 Layer_Color=8388736*
%FSLAX25Y25*%
%MOIN*%
G70*
G01*
G75*
%ADD44R,0.03556X0.07099*%
%ADD45R,0.07099X0.08674*%
%ADD46R,0.04800X0.04800*%
%ADD47R,0.04800X0.04800*%
%ADD48R,0.14579X0.07099*%
%ADD49R,0.07099X0.14579*%
%ADD50R,0.03556X0.04343*%
%ADD51R,0.03162X0.02375*%
%ADD52R,0.05800X0.05800*%
%ADD53R,0.07099X0.11824*%
%ADD54R,0.04343X0.03950*%
%ADD55R,0.07887X0.01981*%
%ADD56R,0.04343X0.03556*%
%ADD57R,0.02375X0.03162*%
%ADD58R,0.01883X0.01784*%
%ADD59R,0.01784X0.01883*%
%ADD60R,0.05800X0.05800*%
%ADD61R,0.06902X0.03162*%
%ADD62R,0.03556X0.04343*%
%ADD63R,0.01981X0.03753*%
%ADD64R,0.04400X0.04400*%
%ADD65R,0.05800X0.04400*%
%ADD66C,0.06706*%
%ADD67R,0.06706X0.06706*%
%ADD68C,0.06587*%
%ADD69C,0.06800*%
D44*
X164370Y34700D02*
D03*
X167520D02*
D03*
X170669D02*
D03*
X173819D02*
D03*
X176969D02*
D03*
D45*
X153543Y12259D02*
D03*
X187795D02*
D03*
Y33913D02*
D03*
X153543D02*
D03*
D46*
X83928Y80662D02*
D03*
Y74662D02*
D03*
X90001Y18300D02*
D03*
Y24300D02*
D03*
X108500Y71569D02*
D03*
Y65569D02*
D03*
Y53768D02*
D03*
Y59768D02*
D03*
X114301Y53768D02*
D03*
Y59768D02*
D03*
Y71569D02*
D03*
Y65569D02*
D03*
X84200Y18300D02*
D03*
Y24300D02*
D03*
D47*
X6119Y4939D02*
D03*
X12119D02*
D03*
X6119Y10740D02*
D03*
X12119D02*
D03*
X183200Y77100D02*
D03*
X189200D02*
D03*
X171399D02*
D03*
X177399D02*
D03*
X84100Y6900D02*
D03*
X90100D02*
D03*
X46757Y58100D02*
D03*
X40757D02*
D03*
D48*
X11009Y41570D02*
D03*
Y62830D02*
D03*
D49*
X28528Y75773D02*
D03*
X7269D02*
D03*
D50*
X83328Y69090D02*
D03*
Y63972D02*
D03*
X145408Y26277D02*
D03*
Y21159D02*
D03*
X34200Y53210D02*
D03*
Y58328D02*
D03*
D51*
X141026Y20175D02*
D03*
Y24506D02*
D03*
D52*
X89029Y64700D02*
D03*
X97029D02*
D03*
D53*
X66130Y77151D02*
D03*
X44870D02*
D03*
D54*
X112840Y15100D02*
D03*
X104966Y11360D02*
D03*
Y18840D02*
D03*
X147955Y68078D02*
D03*
X140081Y64338D02*
D03*
Y71818D02*
D03*
X147955Y53290D02*
D03*
X140081Y49549D02*
D03*
Y57030D02*
D03*
X134737Y53290D02*
D03*
X126863Y49549D02*
D03*
Y57030D02*
D03*
X134737Y68078D02*
D03*
X126863Y64338D02*
D03*
Y71818D02*
D03*
D55*
X42300Y52202D02*
D03*
Y49643D02*
D03*
Y47084D02*
D03*
Y44525D02*
D03*
Y41966D02*
D03*
Y39407D02*
D03*
Y36848D02*
D03*
Y34289D02*
D03*
Y31730D02*
D03*
Y29171D02*
D03*
Y26612D02*
D03*
Y24053D02*
D03*
Y21494D02*
D03*
Y18935D02*
D03*
Y16376D02*
D03*
Y13817D02*
D03*
Y11258D02*
D03*
Y8698D02*
D03*
Y6139D02*
D03*
X71434Y52202D02*
D03*
Y49643D02*
D03*
Y47084D02*
D03*
Y44525D02*
D03*
Y41966D02*
D03*
Y39407D02*
D03*
Y36848D02*
D03*
Y34289D02*
D03*
Y31730D02*
D03*
Y29171D02*
D03*
Y26612D02*
D03*
Y24053D02*
D03*
Y21494D02*
D03*
Y18935D02*
D03*
Y16376D02*
D03*
Y13817D02*
D03*
Y11258D02*
D03*
Y8698D02*
D03*
Y6139D02*
D03*
D56*
X145581Y13513D02*
D03*
Y8002D02*
D03*
X111996Y37327D02*
D03*
Y31815D02*
D03*
X117797D02*
D03*
Y37327D02*
D03*
X129433Y8002D02*
D03*
Y13513D02*
D03*
D57*
X167732Y43800D02*
D03*
X163402D02*
D03*
D58*
X97830Y41047D02*
D03*
X103736Y46953D02*
D03*
Y41047D02*
D03*
Y43016D02*
D03*
Y44984D02*
D03*
X97830Y46953D02*
D03*
Y44984D02*
D03*
Y43016D02*
D03*
D59*
X101768Y46953D02*
D03*
X99799D02*
D03*
Y41047D02*
D03*
X101768D02*
D03*
D60*
X105695Y36205D02*
D03*
Y28205D02*
D03*
D61*
X28430Y31877D02*
D03*
Y26877D02*
D03*
Y21877D02*
D03*
Y16877D02*
D03*
X7170D02*
D03*
Y21877D02*
D03*
Y26877D02*
D03*
Y31877D02*
D03*
D62*
X30103Y10663D02*
D03*
X24591D02*
D03*
X30103Y4862D02*
D03*
X24591D02*
D03*
D63*
X140752Y8100D02*
D03*
X135634D02*
D03*
X140752Y15580D02*
D03*
X138193Y8100D02*
D03*
X135634Y15580D02*
D03*
D64*
X153328Y71828D02*
D03*
Y64328D02*
D03*
Y57040D02*
D03*
Y49540D02*
D03*
D65*
X161328Y68028D02*
D03*
Y53240D02*
D03*
D66*
X189834Y54059D02*
D03*
D67*
Y44059D02*
D03*
D68*
X25256Y44000D02*
D03*
X174744D02*
D03*
D69*
X149606Y80600D02*
D03*
X133858D02*
D03*
M02*
