G04 Layer_Physical_Order=1*
G04 Layer_Color=255*
%FSLAX25Y25*%
%MOIN*%
G70*
G01*
G75*
%ADD10R,0.02756X0.06299*%
%ADD11R,0.06299X0.07874*%
%ADD12R,0.04000X0.04000*%
%ADD13R,0.04000X0.04000*%
%ADD14R,0.13780X0.06299*%
%ADD15R,0.06299X0.13780*%
%ADD16R,0.02756X0.03543*%
%ADD17R,0.02362X0.01575*%
%ADD18R,0.05000X0.05000*%
%ADD19R,0.06299X0.11024*%
%ADD20R,0.03543X0.03150*%
%ADD21R,0.07087X0.01181*%
%ADD22R,0.03543X0.02756*%
%ADD23R,0.01575X0.02362*%
%ADD24R,0.01083X0.00984*%
%ADD25R,0.00984X0.01083*%
%ADD26R,0.05000X0.05000*%
%ADD27R,0.06102X0.02362*%
%ADD28R,0.02756X0.03543*%
%ADD29R,0.01181X0.02953*%
%ADD30R,0.03600X0.03600*%
%ADD31R,0.05000X0.03600*%
%ADD32C,0.01000*%
%ADD33C,0.01969*%
%ADD34C,0.05906*%
%ADD35R,0.05906X0.05906*%
%ADD36C,0.05787*%
%ADD37C,0.06000*%
%ADD38C,0.01600*%
G36*
X145184Y50715D02*
X149990D01*
X150528Y50177D01*
Y47982D01*
X143812D01*
X142853Y48941D01*
Y51266D01*
X145184D01*
Y50715D01*
D02*
G37*
G36*
X157828Y56040D02*
X157828Y56040D01*
X157828D01*
X157828Y56040D01*
Y50591D01*
X156590Y49353D01*
X156128Y49544D01*
Y52340D01*
X152691D01*
X151253Y53778D01*
X151444Y54240D01*
X156128D01*
Y56471D01*
X157661D01*
X157828Y56040D01*
D02*
G37*
G36*
X90197Y27762D02*
X90005Y27300D01*
X89183D01*
X85202Y31281D01*
X84706Y31613D01*
X84121Y31729D01*
X78151D01*
X77902Y31896D01*
X77200Y32035D01*
X76498Y31896D01*
X76418Y31842D01*
X75977Y32078D01*
Y32760D01*
X85199D01*
X90197Y27762D01*
D02*
G37*
G36*
X82691Y54331D02*
X83465Y54177D01*
X86699D01*
X86844Y53798D01*
X86868Y53677D01*
X86484Y53102D01*
X86345Y52400D01*
X86484Y51698D01*
X86882Y51102D01*
X87478Y50704D01*
X87771Y50646D01*
X87823Y50594D01*
X88009Y50316D01*
X90898Y47427D01*
Y44447D01*
X91014Y43861D01*
X91346Y43365D01*
X94745Y39966D01*
X95241Y39634D01*
X95826Y39518D01*
X97830D01*
X98307Y39506D01*
Y39506D01*
X102195D01*
Y32705D01*
X109195Y32705D01*
X109224Y32217D01*
Y32193D01*
X109195Y31705D01*
X108724Y31705D01*
X106195D01*
Y28705D01*
X109195D01*
Y28949D01*
X109224Y29437D01*
X109695Y29437D01*
X111496D01*
Y31815D01*
X112496D01*
Y29437D01*
X114525D01*
X114896Y29437D01*
X115267Y29437D01*
X117297D01*
Y31815D01*
X118297D01*
Y29437D01*
X120568D01*
Y31739D01*
X121030Y31931D01*
X126971Y25990D01*
Y15891D01*
X126662D01*
Y14224D01*
X116567Y4129D01*
X93100D01*
Y6400D01*
X90100D01*
Y6900D01*
X89600D01*
Y9900D01*
X89516D01*
X89325Y10362D01*
X89709Y10746D01*
X90002Y10804D01*
X90598Y11202D01*
X90996Y11798D01*
X91135Y12500D01*
X90996Y13202D01*
X90598Y13798D01*
X90002Y14196D01*
X89300Y14335D01*
X88833Y14242D01*
X88587Y14703D01*
X89183Y15300D01*
X93001D01*
Y21300D01*
Y24305D01*
X93463Y24496D01*
X99871Y18088D01*
Y14926D01*
X99987Y14341D01*
X100319Y13845D01*
X102195Y11969D01*
Y8785D01*
X107738D01*
Y13935D01*
X104554D01*
X102929Y15560D01*
Y16265D01*
X107738D01*
Y21415D01*
X105253D01*
X102463Y24205D01*
X102670Y24705D01*
X105195D01*
Y27705D01*
X102195D01*
Y25180D01*
X101695Y24973D01*
X82223Y44445D01*
Y53300D01*
X82069Y54074D01*
X81984Y54202D01*
X82345Y54562D01*
X82691Y54331D01*
D02*
G37*
G36*
X198780Y1220D02*
X118690D01*
X118483Y1720D01*
X122789Y6027D01*
X123332Y5862D01*
X123404Y5498D01*
X123802Y4902D01*
X124398Y4504D01*
X124600Y4464D01*
Y6200D01*
X125600D01*
Y4464D01*
X125802Y4504D01*
X126398Y4902D01*
X126796Y5498D01*
X126821Y5624D01*
X128933D01*
Y8002D01*
Y10379D01*
X127950D01*
X127740Y10857D01*
X127964Y11135D01*
X132205D01*
Y11984D01*
X133567D01*
X134152Y12100D01*
X134649Y12432D01*
X135321Y13104D01*
X136217D01*
X136485Y12604D01*
X136464Y12500D01*
X137700D01*
Y13757D01*
X137225Y14069D01*
Y18057D01*
X134044D01*
Y16153D01*
X132934Y15043D01*
X132205D01*
Y15891D01*
X130029D01*
Y26624D01*
X129913Y27209D01*
X129581Y27705D01*
X120568Y36718D01*
Y38661D01*
X124669D01*
X124884Y38400D01*
X128842D01*
X129057Y38661D01*
X149394D01*
Y28976D01*
X157693D01*
Y37349D01*
X158155Y37540D01*
X161992Y33703D01*
Y30550D01*
X164434D01*
X164626Y30088D01*
X162353Y27816D01*
X147786D01*
Y29049D01*
X143030D01*
Y26293D01*
X138845D01*
Y26276D01*
X138345Y26106D01*
X138202Y26201D01*
X137500Y26341D01*
X136798Y26201D01*
X136629Y26089D01*
X136129Y26356D01*
Y28549D01*
X136296Y28798D01*
X136435Y29500D01*
X136296Y30202D01*
X135898Y30798D01*
X135302Y31196D01*
X134600Y31335D01*
X133898Y31196D01*
X133302Y30798D01*
X132904Y30202D01*
X132765Y29500D01*
X132904Y28798D01*
X133071Y28549D01*
Y23000D01*
X133187Y22415D01*
X133519Y21919D01*
X136344Y19093D01*
X136840Y18762D01*
X137425Y18645D01*
X138452D01*
X138845Y18387D01*
X139162Y18047D01*
Y14078D01*
X138700Y13769D01*
Y12500D01*
X139936D01*
X139915Y12604D01*
X140183Y13104D01*
X141066D01*
X141738Y12432D01*
X142234Y12100D01*
X142810Y11986D01*
Y11135D01*
X148353D01*
Y15891D01*
X142810D01*
X142810Y15891D01*
Y15891D01*
X142404Y16113D01*
X142343Y16163D01*
Y18057D01*
X142706Y18387D01*
X147786D01*
Y23505D01*
Y24757D01*
X162987D01*
X163572Y24874D01*
X164068Y25205D01*
X167977Y29114D01*
X168515Y28945D01*
X168604Y28498D01*
X169002Y27902D01*
X169598Y27504D01*
X170300Y27365D01*
X171002Y27504D01*
X171598Y27902D01*
X171996Y28498D01*
X172135Y29200D01*
X171996Y29902D01*
X171897Y30050D01*
X172063Y30550D01*
X176469D01*
Y34700D01*
Y38850D01*
X169049D01*
Y41619D01*
X169520D01*
Y45981D01*
X169129D01*
Y48049D01*
X169296Y48298D01*
X169435Y49000D01*
X169296Y49702D01*
X168898Y50298D01*
X168302Y50696D01*
X167600Y50835D01*
X166898Y50696D01*
X166302Y50298D01*
X165904Y49702D01*
X165765Y49000D01*
X165904Y48298D01*
X166071Y48049D01*
Y45981D01*
X165945D01*
Y41619D01*
X165990D01*
Y38850D01*
X162567D01*
X159302Y42115D01*
X158761Y42476D01*
X158694Y42887D01*
X158718Y43049D01*
X158798Y43102D01*
X159196Y43698D01*
X159236Y43900D01*
X155764D01*
X155804Y43698D01*
X156132Y43207D01*
X155962Y42707D01*
X115917D01*
X108318Y50306D01*
X108509Y50768D01*
X112591D01*
X112743Y50268D01*
X112338Y49998D01*
X111940Y49402D01*
X111900Y49200D01*
X115372D01*
X115331Y49402D01*
X114934Y49998D01*
X114529Y50268D01*
X114680Y50768D01*
X117301D01*
Y53952D01*
X117763Y54144D01*
X123439Y48468D01*
X123935Y48136D01*
X124091Y48105D01*
Y46975D01*
X129635D01*
Y52124D01*
X128779D01*
X128573Y52510D01*
X128566Y52624D01*
X128599Y52790D01*
X125127D01*
X125160Y52624D01*
X125153Y52510D01*
X124946Y52124D01*
X124108D01*
X117301Y58931D01*
Y62808D01*
X124091D01*
Y61763D01*
X129395D01*
X129602Y61263D01*
X127943Y59605D01*
X124091D01*
Y54455D01*
X124946D01*
X125153Y54069D01*
X125160Y53955D01*
X125127Y53790D01*
X128599D01*
X128566Y53955D01*
X128573Y54069D01*
X128779Y54455D01*
X129635D01*
Y55085D01*
X129667Y55150D01*
X130149Y54860D01*
Y50722D01*
X130265Y50137D01*
X130596Y49641D01*
X131769Y48468D01*
X132265Y48136D01*
X132851Y48020D01*
X137310D01*
Y46975D01*
X140493D01*
X142097Y45371D01*
X142593Y45039D01*
X143178Y44923D01*
X155375D01*
X155393Y44900D01*
X159236D01*
X159196Y45102D01*
X158798Y45698D01*
X158300Y46030D01*
X158142Y46579D01*
X162003Y50440D01*
X164828D01*
Y55602D01*
X165328Y55809D01*
X168159Y52978D01*
X168656Y52646D01*
X169241Y52530D01*
X180212D01*
X180299Y52030D01*
X179802Y51698D01*
X179404Y51102D01*
X179346Y50809D01*
X176164Y47627D01*
X175761Y47793D01*
X174744Y47927D01*
X173728Y47793D01*
X172780Y47401D01*
X171967Y46777D01*
X171343Y45964D01*
X170951Y45017D01*
X170817Y44000D01*
X170951Y42983D01*
X171343Y42036D01*
X171967Y41223D01*
X172780Y40599D01*
X173728Y40207D01*
X174744Y40073D01*
X175761Y40207D01*
X176708Y40599D01*
X177521Y41223D01*
X178145Y42036D01*
X178325Y42471D01*
X185881D01*
Y40106D01*
X193787D01*
Y48012D01*
X185881D01*
Y45529D01*
X179046D01*
X178854Y45991D01*
X181509Y48646D01*
X181802Y48704D01*
X182398Y49102D01*
X182796Y49698D01*
X182935Y50400D01*
X182796Y51102D01*
X182398Y51698D01*
X181901Y52030D01*
X181988Y52530D01*
X186189D01*
X186381Y52066D01*
X187015Y51240D01*
X187841Y50606D01*
X188802Y50208D01*
X189834Y50072D01*
X190866Y50208D01*
X191828Y50606D01*
X192653Y51240D01*
X193287Y52066D01*
X193685Y53027D01*
X193821Y54059D01*
X193685Y55091D01*
X193287Y56053D01*
X192653Y56878D01*
X191828Y57512D01*
X190866Y57910D01*
X190015Y58022D01*
X184729Y63307D01*
Y74100D01*
X188700D01*
Y77100D01*
Y80100D01*
X168399D01*
Y74100D01*
X169870D01*
Y72951D01*
X169703Y72702D01*
X169564Y72000D01*
X169703Y71298D01*
X170101Y70702D01*
X170697Y70304D01*
X171399Y70165D01*
X172101Y70304D01*
X172697Y70702D01*
X173095Y71298D01*
X173234Y72000D01*
X173095Y72702D01*
X172928Y72951D01*
Y74100D01*
X181671D01*
Y62674D01*
X181787Y62089D01*
X182119Y61592D01*
X186936Y56775D01*
X186381Y56053D01*
X186189Y55588D01*
X169874D01*
X165754Y59709D01*
X165696Y60002D01*
X165298Y60598D01*
X164702Y60996D01*
X164000Y61135D01*
X163614Y61059D01*
X163247Y61090D01*
X163071Y61422D01*
X162996Y61802D01*
X162642Y62331D01*
X162594Y62548D01*
Y62752D01*
X162642Y62969D01*
X162996Y63498D01*
X163135Y64200D01*
X163030Y64728D01*
X163285Y65148D01*
X163379Y65228D01*
X164828D01*
Y70828D01*
X157828D01*
Y70144D01*
X157366Y69953D01*
X156128Y71191D01*
Y74628D01*
X150528D01*
Y70653D01*
X149978D01*
Y76614D01*
X150651Y76703D01*
X151624Y77106D01*
X152459Y77747D01*
X153100Y78583D01*
X153503Y79556D01*
X153641Y80600D01*
X153503Y81644D01*
X153100Y82617D01*
X152459Y83453D01*
X151624Y84094D01*
X150651Y84497D01*
X149606Y84635D01*
X148562Y84497D01*
X147589Y84094D01*
X146754Y83453D01*
X146112Y82617D01*
X145709Y81644D01*
X145572Y80600D01*
X145709Y79556D01*
X145941Y78995D01*
X145932Y78949D01*
Y70653D01*
X145184D01*
Y65503D01*
X145184D01*
X145333Y65143D01*
X143315Y63125D01*
X142853Y63316D01*
Y66913D01*
X137509D01*
Y69243D01*
X142853D01*
Y74393D01*
X142104D01*
Y75600D01*
X141950Y76374D01*
X141512Y77031D01*
X140856Y77469D01*
X140081Y77623D01*
X139307Y77469D01*
X138651Y77031D01*
X138212Y76374D01*
X138058Y75600D01*
Y74393D01*
X137310D01*
Y70653D01*
X136760D01*
Y77811D01*
X137352Y78583D01*
X137755Y79556D01*
X137893Y80600D01*
X137755Y81644D01*
X137352Y82617D01*
X136711Y83453D01*
X135875Y84094D01*
X134903Y84497D01*
X133858Y84635D01*
X132814Y84497D01*
X131841Y84094D01*
X131005Y83453D01*
X130364Y82617D01*
X129961Y81644D01*
X129824Y80600D01*
X129961Y79556D01*
X130364Y78583D01*
X131005Y77747D01*
X131841Y77106D01*
X132714Y76744D01*
Y73126D01*
X132214Y72974D01*
X132031Y73249D01*
X131374Y73687D01*
X130600Y73841D01*
X129635D01*
Y74393D01*
X124091D01*
Y73099D01*
X117301D01*
Y74569D01*
X105500D01*
Y68569D01*
Y64347D01*
X105000Y64195D01*
X104798Y64498D01*
X104202Y64896D01*
X104000Y64936D01*
Y63200D01*
X103500D01*
Y62700D01*
X101764D01*
X101804Y62498D01*
X102202Y61902D01*
X102798Y61504D01*
X103047Y61455D01*
Y60945D01*
X102798Y60896D01*
X102202Y60498D01*
X101804Y59902D01*
X101665Y59200D01*
X101804Y58498D01*
X102009Y58192D01*
X102058Y57735D01*
X101802Y57402D01*
X101262Y57362D01*
X99052Y59572D01*
Y61200D01*
X100529D01*
Y68200D01*
X93529D01*
Y61200D01*
X95006D01*
Y58734D01*
X95160Y57960D01*
X95598Y57303D01*
X98242Y54659D01*
X97996Y54198D01*
X97810Y54235D01*
X97108Y54096D01*
X96512Y53698D01*
X96455Y53612D01*
X95955D01*
X95898Y53698D01*
X95302Y54096D01*
X94600Y54235D01*
X93898Y54096D01*
X93302Y53698D01*
X93245Y53612D01*
X92756D01*
X92730Y53635D01*
X92688Y53698D01*
X92570Y53776D01*
X92382Y53943D01*
X92402Y54490D01*
X92821Y54769D01*
X93259Y55426D01*
X93413Y56200D01*
X93259Y56974D01*
X92821Y57631D01*
X92164Y58069D01*
X91390Y58223D01*
X84303D01*
X81826Y60700D01*
X82033Y61200D01*
X92529D01*
Y68200D01*
X89758D01*
X89709Y68700D01*
X89731Y68704D01*
X90326Y69102D01*
X90724Y69698D01*
X90864Y70400D01*
X90724Y71102D01*
X90326Y71698D01*
X89731Y72096D01*
X89029Y72235D01*
X88326Y72096D01*
X87731Y71698D01*
X87333Y71102D01*
X87275Y70809D01*
X87085Y70619D01*
X85706D01*
Y71662D01*
X86928D01*
Y77662D01*
Y80162D01*
X83928D01*
Y80662D01*
D01*
Y80162D01*
X80928D01*
Y77662D01*
Y71662D01*
X80950D01*
Y65995D01*
X80065D01*
X79290Y65841D01*
X78634Y65402D01*
X78196Y64746D01*
X78042Y63972D01*
X78196Y63197D01*
X78634Y62541D01*
X79290Y62103D01*
X79601Y62041D01*
Y61531D01*
X79290Y61469D01*
X78634Y61031D01*
X78196Y60374D01*
X78042Y59600D01*
X78091Y59352D01*
X77693Y58790D01*
X77587Y58774D01*
X70323Y66038D01*
Y74980D01*
X70280Y75200D01*
Y83662D01*
X61980D01*
Y70639D01*
X66277D01*
Y65200D01*
X66431Y64426D01*
X66869Y63769D01*
X78177Y52462D01*
Y43606D01*
X78331Y42832D01*
X78769Y42176D01*
X84665Y36280D01*
X84474Y35818D01*
X82553D01*
X82292Y36230D01*
X82300Y36318D01*
X82336Y36500D01*
X78864D01*
X78900Y36318D01*
X78908Y36230D01*
X78647Y35818D01*
X75977D01*
Y40376D01*
Y42935D01*
Y45494D01*
Y48053D01*
Y50612D01*
Y53793D01*
X66891D01*
X66629Y54185D01*
Y54400D01*
X66513Y54985D01*
X66181Y55481D01*
X63881Y57781D01*
X63385Y58113D01*
X62800Y58229D01*
X49757D01*
Y61100D01*
X37757D01*
Y59629D01*
X36578D01*
Y61100D01*
X31822D01*
Y55557D01*
Y53710D01*
X34200D01*
X36578D01*
Y56571D01*
X37757D01*
Y55100D01*
X49757D01*
Y55171D01*
X62167D01*
X63571Y53767D01*
Y50023D01*
X63687Y49437D01*
X64019Y48941D01*
X66891Y46069D01*
Y42935D01*
Y40376D01*
Y37817D01*
Y35258D01*
Y32699D01*
Y28268D01*
X66391Y28194D01*
X61478Y33107D01*
X61419Y33400D01*
X61021Y33995D01*
X60426Y34393D01*
X59976Y34483D01*
X59818Y34985D01*
X60136Y35347D01*
X60426Y35404D01*
X61021Y35802D01*
X61419Y36398D01*
X61559Y37100D01*
X61419Y37802D01*
X61021Y38398D01*
X60426Y38796D01*
X59724Y38935D01*
X59021Y38796D01*
X58426Y38398D01*
X58028Y37802D01*
X57970Y37509D01*
X48602Y28141D01*
X46843D01*
Y32699D01*
Y35319D01*
X49825D01*
X49902Y35202D01*
X50498Y34804D01*
X51200Y34665D01*
X51902Y34804D01*
X52498Y35202D01*
X52896Y35798D01*
X53035Y36500D01*
X52896Y37202D01*
X52498Y37798D01*
X51902Y38196D01*
X51200Y38335D01*
X51132Y38322D01*
X50852Y38377D01*
X46843D01*
Y42935D01*
Y44025D01*
X37757D01*
Y42935D01*
Y40376D01*
Y37817D01*
Y35258D01*
Y32699D01*
Y30139D01*
Y27580D01*
Y25021D01*
Y22462D01*
Y19903D01*
Y17344D01*
Y16876D01*
X42300D01*
Y15876D01*
X37757D01*
Y14832D01*
X35117Y12192D01*
X34001D01*
X33810Y12654D01*
X35181Y14026D01*
X35513Y14522D01*
X35629Y15107D01*
Y30400D01*
X35513Y30985D01*
X35181Y31481D01*
X33704Y32959D01*
X33208Y33290D01*
X32623Y33407D01*
X32481D01*
Y34058D01*
X24379D01*
Y29696D01*
X32053D01*
X32241Y29377D01*
X32053Y29059D01*
X24379D01*
Y24696D01*
X32053D01*
X32241Y24377D01*
X32053Y24058D01*
X24379D01*
Y19696D01*
X32053D01*
X32241Y19377D01*
X32053Y19059D01*
X24379D01*
Y14696D01*
X30873D01*
X31065Y14234D01*
X30265Y13434D01*
X27725D01*
Y7891D01*
X27725D01*
Y7633D01*
X27725D01*
Y2090D01*
X30712D01*
X31082Y1720D01*
X30875Y1220D01*
X1220D01*
Y8896D01*
X1720Y9163D01*
X1898Y9045D01*
X2600Y8905D01*
X2732Y8931D01*
X3119Y8614D01*
Y1939D01*
X15119D01*
Y3410D01*
X15849D01*
X16098Y3244D01*
X16800Y3104D01*
X17502Y3244D01*
X18098Y3641D01*
X18496Y4237D01*
X18635Y4939D01*
X18496Y5641D01*
X18098Y6237D01*
X17502Y6635D01*
X16800Y6774D01*
X16098Y6635D01*
X15849Y6469D01*
X15119D01*
Y7740D01*
Y10240D01*
X12119D01*
Y10740D01*
X11619D01*
Y13740D01*
X3119D01*
Y12866D01*
X2732Y12549D01*
X2600Y12575D01*
X1898Y12436D01*
X1720Y12317D01*
X1220Y12585D01*
Y25033D01*
X1720Y25300D01*
X1898Y25182D01*
X2600Y25042D01*
X2732Y25068D01*
X3119Y24751D01*
Y24696D01*
X11221D01*
Y29059D01*
X3119D01*
Y29004D01*
X2732Y28686D01*
X2600Y28713D01*
X1898Y28573D01*
X1720Y28454D01*
X1220Y28722D01*
Y48056D01*
X1720Y48323D01*
X1898Y48204D01*
X2100Y48164D01*
Y49900D01*
Y51636D01*
X1898Y51596D01*
X1720Y51477D01*
X1220Y51744D01*
Y86780D01*
X198780D01*
Y1220D01*
D02*
G37*
G36*
X76498Y28504D02*
X76957Y28413D01*
X77370Y27928D01*
X77365Y27900D01*
X77504Y27198D01*
X77902Y26602D01*
X78498Y26204D01*
X79200Y26065D01*
X79902Y26204D01*
X80040Y26297D01*
X81200Y25137D01*
Y21847D01*
X80700Y21695D01*
X80498Y21998D01*
X79902Y22396D01*
X79200Y22535D01*
X79016Y22499D01*
X78896Y23102D01*
X78498Y23698D01*
X77902Y24096D01*
X77200Y24235D01*
X76498Y24096D01*
X76418Y24042D01*
X75977Y24278D01*
Y28322D01*
X76418Y28558D01*
X76498Y28504D01*
D02*
G37*
G36*
X131965Y69814D02*
Y66342D01*
X131524Y66107D01*
X131374Y66207D01*
X130600Y66361D01*
X129635D01*
Y66913D01*
X124091D01*
Y65867D01*
X117301D01*
Y70040D01*
X124091D01*
Y69243D01*
X129635D01*
Y69795D01*
X130600D01*
X131374Y69949D01*
X131524Y70049D01*
X131965Y69814D01*
D02*
G37*
G36*
X81200Y19553D02*
Y15300D01*
X82014D01*
X82424Y14800D01*
X82365Y14500D01*
X82504Y13798D01*
X82902Y13202D01*
X83498Y12804D01*
X84200Y12665D01*
X84902Y12804D01*
X84995Y12646D01*
X85004Y12598D01*
X85259Y12217D01*
X84998Y11717D01*
X76318D01*
X75977Y11997D01*
Y14785D01*
Y17405D01*
X77435D01*
X78020Y17522D01*
X78516Y17853D01*
X79609Y18946D01*
X79902Y19004D01*
X80498Y19402D01*
X80700Y19705D01*
X81200Y19553D01*
D02*
G37*
G36*
X150528Y62291D02*
X148119Y59881D01*
X147787Y59385D01*
X147671Y58800D01*
Y55864D01*
X145184D01*
Y55313D01*
X142853D01*
Y56940D01*
X146231Y60318D01*
X146231Y60318D01*
X149386Y63473D01*
X149825Y64130D01*
X149978Y64904D01*
Y65503D01*
X150528D01*
Y62291D01*
D02*
G37*
G36*
X112735Y40167D02*
X112543Y39705D01*
X109224D01*
Y39705D01*
X109195D01*
Y39705D01*
X105277D01*
Y41177D01*
X105777Y41289D01*
X106102Y40802D01*
X106698Y40404D01*
X106900Y40364D01*
Y42100D01*
Y43836D01*
X106698Y43796D01*
X106102Y43398D01*
X105777Y42911D01*
X105277Y43023D01*
Y44508D01*
X103923D01*
X103736Y44545D01*
Y45484D01*
X105277D01*
Y46971D01*
X105739Y47162D01*
X112735Y40167D01*
D02*
G37*
G36*
X57939Y32445D02*
X58028Y31995D01*
X58426Y31400D01*
X59021Y31002D01*
X59315Y30944D01*
X60633Y29625D01*
X60548Y29449D01*
X60338Y29213D01*
X60224Y29236D01*
Y28000D01*
X61459D01*
X61437Y28115D01*
X61673Y28324D01*
X61849Y28409D01*
X64728Y25530D01*
X65224Y25199D01*
X65810Y25082D01*
X66891D01*
Y22462D01*
Y19903D01*
Y17344D01*
Y12960D01*
X66391Y12827D01*
X66202Y12953D01*
X65500Y13093D01*
X64798Y12953D01*
X64202Y12555D01*
X63804Y11960D01*
X63665Y11258D01*
X63804Y10555D01*
X64202Y9960D01*
X64798Y9562D01*
X65500Y9422D01*
X66202Y9562D01*
X66391Y9688D01*
X66436Y9686D01*
X66891Y9555D01*
Y7108D01*
Y4549D01*
X66696Y4129D01*
X57574D01*
X57525Y4629D01*
X57902Y4704D01*
X58498Y5102D01*
X58896Y5698D01*
X58936Y5900D01*
X55464D01*
X55504Y5698D01*
X55902Y5102D01*
X56498Y4704D01*
X56875Y4629D01*
X56826Y4129D01*
X49510D01*
X49461Y4629D01*
X49948Y4726D01*
X50444Y5058D01*
X60376Y14989D01*
X60577Y14953D01*
X60886Y14793D01*
X61004Y14198D01*
X61402Y13602D01*
X61998Y13204D01*
X62200Y13164D01*
Y14900D01*
X62700D01*
Y15400D01*
X64436D01*
X64396Y15602D01*
X63998Y16198D01*
X63402Y16596D01*
X63034Y16669D01*
X62730Y17084D01*
X62739Y17198D01*
X62859Y17800D01*
X62719Y18502D01*
X62321Y19098D01*
X61726Y19496D01*
X61354Y19570D01*
X60969Y19960D01*
X60942Y20123D01*
X60947Y20150D01*
X60807Y20852D01*
X60409Y21448D01*
X59814Y21846D01*
X59112Y21985D01*
X58963Y22135D01*
X59035Y22500D01*
X58896Y23202D01*
X58498Y23798D01*
X57902Y24196D01*
X57200Y24335D01*
X56498Y24196D01*
X55902Y23798D01*
X55504Y23202D01*
X55446Y22909D01*
X53001Y20464D01*
X46843D01*
Y25082D01*
X49235D01*
X49821Y25199D01*
X50317Y25530D01*
X57401Y32614D01*
X57939Y32445D01*
D02*
G37*
G36*
X37757Y9853D02*
Y7108D01*
Y4549D01*
X37562Y4129D01*
X32998D01*
X32481Y4647D01*
Y7633D01*
X32481D01*
Y7891D01*
X32481D01*
Y9133D01*
X35751D01*
X36336Y9250D01*
X36832Y9581D01*
X37295Y10044D01*
X37757Y9853D01*
D02*
G37*
%LPC*%
G36*
X111496Y23600D02*
X110260D01*
X110300Y23398D01*
X110698Y22802D01*
X111293Y22404D01*
X111496Y22364D01*
Y23600D01*
D02*
G37*
G36*
X113732D02*
X112496D01*
Y22364D01*
X112698Y22404D01*
X113293Y22802D01*
X113691Y23398D01*
X113732Y23600D01*
D02*
G37*
G36*
X109195Y27705D02*
X106195D01*
Y24705D01*
X109195D01*
Y27705D01*
D02*
G37*
G36*
X105195Y31705D02*
X102195D01*
Y28705D01*
X105195D01*
Y31705D01*
D02*
G37*
G36*
X111496Y25836D02*
X111293Y25796D01*
X110698Y25398D01*
X110300Y24802D01*
X110260Y24600D01*
X111496D01*
Y25836D01*
D02*
G37*
G36*
X112496D02*
Y24600D01*
X113732D01*
X113691Y24802D01*
X113293Y25398D01*
X112698Y25796D01*
X112496Y25836D01*
D02*
G37*
G36*
X93100Y9900D02*
X90600D01*
Y7400D01*
X93100D01*
Y9900D01*
D02*
G37*
G36*
X111600Y8900D02*
X110364D01*
X110404Y8698D01*
X110802Y8102D01*
X111398Y7704D01*
X111600Y7664D01*
Y8900D01*
D02*
G37*
G36*
X113836D02*
X112600D01*
Y7664D01*
X112802Y7704D01*
X113398Y8102D01*
X113796Y8698D01*
X113836Y8900D01*
D02*
G37*
G36*
X111600Y11136D02*
X111398Y11096D01*
X110802Y10698D01*
X110404Y10102D01*
X110364Y9900D01*
X111600D01*
Y11136D01*
D02*
G37*
G36*
X112600D02*
Y9900D01*
X113836D01*
X113796Y10102D01*
X113398Y10698D01*
X112802Y11096D01*
X112600Y11136D01*
D02*
G37*
G36*
X119437Y21823D02*
X118663Y21669D01*
X118006Y21231D01*
X114451Y17675D01*
X110069D01*
Y12525D01*
X115612D01*
Y13298D01*
X116168Y13669D01*
X120868Y18369D01*
X121306Y19026D01*
X121460Y19800D01*
X121306Y20574D01*
X120868Y21231D01*
X120211Y21669D01*
X119437Y21823D01*
D02*
G37*
G36*
X179347Y34200D02*
X177469D01*
Y30550D01*
X179347D01*
Y34200D01*
D02*
G37*
G36*
Y38850D02*
X177469D01*
Y35200D01*
X179347D01*
Y38850D01*
D02*
G37*
G36*
X196100Y21536D02*
Y20300D01*
X197336D01*
X197296Y20502D01*
X196898Y21098D01*
X196302Y21496D01*
X196100Y21536D01*
D02*
G37*
G36*
X22536Y25100D02*
X21300D01*
Y23864D01*
X21502Y23904D01*
X22098Y24302D01*
X22496Y24898D01*
X22536Y25100D01*
D02*
G37*
G36*
X20300D02*
X19064D01*
X19104Y24898D01*
X19502Y24302D01*
X20098Y23904D01*
X20300Y23864D01*
Y25100D01*
D02*
G37*
G36*
X195100Y21536D02*
X194898Y21496D01*
X194302Y21098D01*
X193904Y20502D01*
X193864Y20300D01*
X195100D01*
Y21536D01*
D02*
G37*
G36*
X149704D02*
X149502Y21496D01*
X148906Y21098D01*
X148508Y20502D01*
X148468Y20300D01*
X149704D01*
Y21536D01*
D02*
G37*
G36*
X11221Y24058D02*
X3119D01*
Y19696D01*
X11221D01*
Y19899D01*
X11693Y20179D01*
X11721Y20177D01*
X12400Y20042D01*
X13102Y20182D01*
X13698Y20580D01*
X14096Y21175D01*
X14235Y21877D01*
X14096Y22580D01*
X13698Y23175D01*
X13102Y23573D01*
X12400Y23713D01*
X11721Y23578D01*
X11693Y23576D01*
X11221Y23856D01*
Y24058D01*
D02*
G37*
G36*
X21300Y20736D02*
Y19500D01*
X22536D01*
X22496Y19702D01*
X22098Y20298D01*
X21502Y20696D01*
X21300Y20736D01*
D02*
G37*
G36*
X150704Y21536D02*
Y20300D01*
X151940D01*
X151900Y20502D01*
X151502Y21098D01*
X150906Y21496D01*
X150704Y21536D01*
D02*
G37*
G36*
X126363Y37400D02*
X125127D01*
X125167Y37198D01*
X125565Y36602D01*
X126161Y36204D01*
X126363Y36164D01*
Y37400D01*
D02*
G37*
G36*
X170800Y21536D02*
Y20300D01*
X172036D01*
X171996Y20502D01*
X171598Y21098D01*
X171002Y21496D01*
X170800Y21536D01*
D02*
G37*
G36*
X169800D02*
X169598Y21496D01*
X169002Y21098D01*
X168604Y20502D01*
X168564Y20300D01*
X169800D01*
Y21536D01*
D02*
G37*
G36*
X197336Y26100D02*
X196100D01*
Y24864D01*
X196302Y24904D01*
X196898Y25302D01*
X197296Y25898D01*
X197336Y26100D01*
D02*
G37*
G36*
X195100D02*
X193864D01*
X193904Y25898D01*
X194302Y25302D01*
X194898Y24904D01*
X195100Y24864D01*
Y26100D01*
D02*
G37*
G36*
Y28336D02*
X194898Y28296D01*
X194302Y27898D01*
X193904Y27302D01*
X193864Y27100D01*
X195100D01*
Y28336D01*
D02*
G37*
G36*
X21300Y27336D02*
Y26100D01*
X22536D01*
X22496Y26302D01*
X22098Y26898D01*
X21502Y27296D01*
X21300Y27336D01*
D02*
G37*
G36*
X20300D02*
X20098Y27296D01*
X19502Y26898D01*
X19104Y26302D01*
X19064Y26100D01*
X20300D01*
Y27336D01*
D02*
G37*
G36*
X11221Y34058D02*
X3119D01*
Y29696D01*
X11221D01*
Y30348D01*
X15849D01*
X16098Y30182D01*
X16800Y30042D01*
X17502Y30182D01*
X18098Y30580D01*
X18496Y31175D01*
X18635Y31877D01*
X18496Y32580D01*
X18098Y33175D01*
X17502Y33573D01*
X16800Y33713D01*
X16098Y33573D01*
X15849Y33407D01*
X11221D01*
Y34058D01*
D02*
G37*
G36*
X191945Y38850D02*
X183646D01*
Y28976D01*
X191945D01*
Y38850D01*
D02*
G37*
G36*
X196100Y28336D02*
Y27100D01*
X197336D01*
X197296Y27302D01*
X196898Y27898D01*
X196302Y28296D01*
X196100Y28336D01*
D02*
G37*
G36*
X20300Y20736D02*
X20098Y20696D01*
X19502Y20298D01*
X19104Y19702D01*
X19064Y19500D01*
X20300D01*
Y20736D01*
D02*
G37*
G36*
X157693Y17196D02*
X149394D01*
Y7322D01*
X157693D01*
Y17196D01*
D02*
G37*
G36*
X191945D02*
X183646D01*
Y7322D01*
X191945D01*
Y17196D01*
D02*
G37*
G36*
X146081Y10379D02*
Y8502D01*
X148353D01*
Y10379D01*
X146081D01*
D02*
G37*
G36*
X132205D02*
X129933D01*
Y8502D01*
X132205D01*
Y10379D01*
D02*
G37*
G36*
X148353Y7502D02*
X146081D01*
Y5624D01*
X148353D01*
Y7502D01*
D02*
G37*
G36*
X169700Y3900D02*
X168464D01*
X168504Y3698D01*
X168902Y3102D01*
X169498Y2704D01*
X169700Y2664D01*
Y3900D01*
D02*
G37*
G36*
X171936D02*
X170700D01*
Y2664D01*
X170902Y2704D01*
X171498Y3102D01*
X171896Y3698D01*
X171936Y3900D01*
D02*
G37*
G36*
X24091Y4362D02*
X22213D01*
Y2090D01*
X24091D01*
Y4362D01*
D02*
G37*
G36*
X26969D02*
X25091D01*
Y2090D01*
X26969D01*
Y4362D01*
D02*
G37*
G36*
X169700Y6136D02*
X169498Y6096D01*
X168902Y5698D01*
X168504Y5102D01*
X168464Y4900D01*
X169700D01*
Y6136D01*
D02*
G37*
G36*
X139936Y11500D02*
X136464D01*
X136504Y11298D01*
X136652Y11076D01*
X136385Y10576D01*
X134044D01*
Y5624D01*
X137693D01*
Y8100D01*
X138693D01*
Y5624D01*
X142310D01*
X142343Y5624D01*
X142810D01*
X142843Y5624D01*
X145081D01*
Y8002D01*
Y10379D01*
X142843D01*
X142810Y10379D01*
X142343Y10460D01*
Y10576D01*
X140015D01*
X139748Y11076D01*
X139896Y11298D01*
X139936Y11500D01*
D02*
G37*
G36*
X132205Y7502D02*
X129933D01*
Y5624D01*
X132205D01*
Y7502D01*
D02*
G37*
G36*
X170700Y6136D02*
Y4900D01*
X171936D01*
X171896Y5102D01*
X171498Y5698D01*
X170902Y6096D01*
X170700Y6136D01*
D02*
G37*
G36*
X26969Y10163D02*
X24591D01*
X22213D01*
Y8134D01*
X22213Y7762D01*
X22213Y7391D01*
Y5362D01*
X24591D01*
X26969D01*
Y7391D01*
X26969Y7762D01*
X26969Y8134D01*
Y10163D01*
D02*
G37*
G36*
X11221Y19059D02*
X7670D01*
Y17377D01*
X11221D01*
Y19059D01*
D02*
G37*
G36*
X149704Y19300D02*
X148468D01*
X148508Y19098D01*
X148906Y18502D01*
X149502Y18104D01*
X149704Y18064D01*
Y19300D01*
D02*
G37*
G36*
X22536Y18500D02*
X21300D01*
Y17264D01*
X21502Y17304D01*
X22098Y17702D01*
X22496Y18298D01*
X22536Y18500D01*
D02*
G37*
G36*
X6670Y19059D02*
X3119D01*
Y17377D01*
X6670D01*
Y19059D01*
D02*
G37*
G36*
X151940Y19300D02*
X150704D01*
Y18064D01*
X150906Y18104D01*
X151502Y18502D01*
X151900Y19098D01*
X151940Y19300D01*
D02*
G37*
G36*
X195100D02*
X193864D01*
X193904Y19098D01*
X194302Y18502D01*
X194898Y18104D01*
X195100Y18064D01*
Y19300D01*
D02*
G37*
G36*
X197336D02*
X196100D01*
Y18064D01*
X196302Y18104D01*
X196898Y18502D01*
X197296Y19098D01*
X197336Y19300D01*
D02*
G37*
G36*
X169800D02*
X168564D01*
X168604Y19098D01*
X169002Y18502D01*
X169598Y18104D01*
X169800Y18064D01*
Y19300D01*
D02*
G37*
G36*
X172036D02*
X170800D01*
Y18064D01*
X171002Y18104D01*
X171598Y18502D01*
X171996Y19098D01*
X172036Y19300D01*
D02*
G37*
G36*
X20300Y18500D02*
X19064D01*
X19104Y18298D01*
X19502Y17702D01*
X20098Y17304D01*
X20300Y17264D01*
Y18500D01*
D02*
G37*
G36*
X24091Y13434D02*
X22213D01*
Y11163D01*
X24091D01*
Y13434D01*
D02*
G37*
G36*
X26969D02*
X25091D01*
Y11163D01*
X26969D01*
Y13434D01*
D02*
G37*
G36*
X15119Y13740D02*
X12619D01*
Y11240D01*
X15119D01*
Y13740D01*
D02*
G37*
G36*
X6670Y16377D02*
X3119D01*
Y14696D01*
X6670D01*
Y16377D01*
D02*
G37*
G36*
X11221D02*
X7670D01*
Y14696D01*
X11221D01*
Y16377D01*
D02*
G37*
G36*
X128599Y37400D02*
X127363D01*
Y36164D01*
X127565Y36204D01*
X128161Y36602D01*
X128559Y37198D01*
X128599Y37400D01*
D02*
G37*
G36*
X56300Y82700D02*
X55064D01*
X55104Y82498D01*
X55502Y81902D01*
X56098Y81504D01*
X56300Y81464D01*
Y82700D01*
D02*
G37*
G36*
X58536D02*
X57300D01*
Y81464D01*
X57502Y81504D01*
X58098Y81902D01*
X58496Y82498D01*
X58536Y82700D01*
D02*
G37*
G36*
X15248D02*
X14012D01*
X14052Y82498D01*
X14450Y81902D01*
X15046Y81504D01*
X15248Y81464D01*
Y82700D01*
D02*
G37*
G36*
X17484D02*
X16248D01*
Y81464D01*
X16450Y81504D01*
X17046Y81902D01*
X17444Y82498D01*
X17484Y82700D01*
D02*
G37*
G36*
X76500D02*
X75264D01*
X75304Y82498D01*
X75702Y81902D01*
X76298Y81504D01*
X76500Y81464D01*
Y82700D01*
D02*
G37*
G36*
X95936D02*
X94700D01*
Y81464D01*
X94902Y81504D01*
X95498Y81902D01*
X95896Y82498D01*
X95936Y82700D01*
D02*
G37*
G36*
X120900D02*
X119664D01*
X119704Y82498D01*
X120102Y81902D01*
X120698Y81504D01*
X120900Y81464D01*
Y82700D01*
D02*
G37*
G36*
X78736D02*
X77500D01*
Y81464D01*
X77702Y81504D01*
X78298Y81902D01*
X78696Y82498D01*
X78736Y82700D01*
D02*
G37*
G36*
X93700D02*
X92464D01*
X92504Y82498D01*
X92902Y81902D01*
X93498Y81504D01*
X93700Y81464D01*
Y82700D01*
D02*
G37*
G36*
X192200Y76600D02*
X189700D01*
Y74100D01*
X192200D01*
Y76600D01*
D02*
G37*
G36*
X6769Y83662D02*
X3119D01*
Y76273D01*
X6769D01*
Y83662D01*
D02*
G37*
G36*
Y75273D02*
X3119D01*
Y67883D01*
X6769D01*
Y75273D01*
D02*
G37*
G36*
X11418D02*
X7768D01*
Y67883D01*
X11418D01*
Y75273D01*
D02*
G37*
G36*
Y83662D02*
X7768D01*
Y76273D01*
X11418D01*
Y83662D01*
D02*
G37*
G36*
X83428D02*
X80928D01*
Y81162D01*
X83428D01*
Y83662D01*
D02*
G37*
G36*
X86928D02*
X84428D01*
Y81162D01*
X86928D01*
Y83662D01*
D02*
G37*
G36*
X192200Y80100D02*
X189700D01*
Y77600D01*
X192200D01*
Y80100D01*
D02*
G37*
G36*
X49020Y83662D02*
X40720D01*
Y79174D01*
X32678D01*
Y83662D01*
X24379D01*
Y67883D01*
X32678D01*
Y75128D01*
X40720D01*
Y70639D01*
X49020D01*
Y75128D01*
X50100D01*
X50874Y75282D01*
X51531Y75720D01*
X51969Y76376D01*
X52123Y77151D01*
X51969Y77925D01*
X51531Y78581D01*
X50874Y79020D01*
X50100Y79174D01*
X49020D01*
Y83662D01*
D02*
G37*
G36*
X123136Y82700D02*
X121900D01*
Y81464D01*
X122102Y81504D01*
X122698Y81902D01*
X123096Y82498D01*
X123136Y82700D01*
D02*
G37*
G36*
X94700Y84936D02*
Y83700D01*
X95936D01*
X95896Y83902D01*
X95498Y84498D01*
X94902Y84896D01*
X94700Y84936D01*
D02*
G37*
G36*
X120900D02*
X120698Y84896D01*
X120102Y84498D01*
X119704Y83902D01*
X119664Y83700D01*
X120900D01*
Y84936D01*
D02*
G37*
G36*
X77500D02*
Y83700D01*
X78736D01*
X78696Y83902D01*
X78298Y84498D01*
X77702Y84896D01*
X77500Y84936D01*
D02*
G37*
G36*
X93700D02*
X93498Y84896D01*
X92902Y84498D01*
X92504Y83902D01*
X92464Y83700D01*
X93700D01*
Y84936D01*
D02*
G37*
G36*
X121900D02*
Y83700D01*
X123136D01*
X123096Y83902D01*
X122698Y84498D01*
X122102Y84896D01*
X121900Y84936D01*
D02*
G37*
G36*
X195100D02*
X194898Y84896D01*
X194302Y84498D01*
X193904Y83902D01*
X193864Y83700D01*
X195100D01*
Y84936D01*
D02*
G37*
G36*
X196100D02*
Y83700D01*
X197336D01*
X197296Y83902D01*
X196898Y84498D01*
X196302Y84896D01*
X196100Y84936D01*
D02*
G37*
G36*
X184100D02*
X183898Y84896D01*
X183302Y84498D01*
X182904Y83902D01*
X182864Y83700D01*
X184100D01*
Y84936D01*
D02*
G37*
G36*
X185100D02*
Y83700D01*
X186336D01*
X186296Y83902D01*
X185898Y84498D01*
X185302Y84896D01*
X185100Y84936D01*
D02*
G37*
G36*
X195100Y82700D02*
X193864D01*
X193904Y82498D01*
X194302Y81902D01*
X194898Y81504D01*
X195100Y81464D01*
Y82700D01*
D02*
G37*
G36*
X197336D02*
X196100D01*
Y81464D01*
X196302Y81504D01*
X196898Y81902D01*
X197296Y82498D01*
X197336Y82700D01*
D02*
G37*
G36*
X184100D02*
X182864D01*
X182904Y82498D01*
X183302Y81902D01*
X183898Y81504D01*
X184100Y81464D01*
Y82700D01*
D02*
G37*
G36*
X186336D02*
X185100D01*
Y81464D01*
X185302Y81504D01*
X185898Y81902D01*
X186296Y82498D01*
X186336Y82700D01*
D02*
G37*
G36*
X15248Y84936D02*
X15046Y84896D01*
X14450Y84498D01*
X14052Y83902D01*
X14012Y83700D01*
X15248D01*
Y84936D01*
D02*
G37*
G36*
X57300D02*
Y83700D01*
X58536D01*
X58496Y83902D01*
X58098Y84498D01*
X57502Y84896D01*
X57300Y84936D01*
D02*
G37*
G36*
X76500D02*
X76298Y84896D01*
X75702Y84498D01*
X75304Y83902D01*
X75264Y83700D01*
X76500D01*
Y84936D01*
D02*
G37*
G36*
X16248D02*
Y83700D01*
X17484D01*
X17444Y83902D01*
X17046Y84498D01*
X16450Y84896D01*
X16248Y84936D01*
D02*
G37*
G36*
X56300D02*
X56098Y84896D01*
X55502Y84498D01*
X55104Y83902D01*
X55064Y83700D01*
X56300D01*
Y84936D01*
D02*
G37*
G36*
X177584Y72598D02*
X176589D01*
X176199Y72521D01*
X176199Y72521D01*
X175280Y72140D01*
X175280Y72140D01*
X174950Y71919D01*
X174246Y71216D01*
X174025Y70885D01*
X173645Y69966D01*
X173567Y69576D01*
Y68581D01*
X173645Y68191D01*
X174025Y67272D01*
X174246Y66942D01*
X174950Y66238D01*
X175280Y66017D01*
X176199Y65637D01*
X176589Y65559D01*
X177584D01*
X177974Y65637D01*
X178893Y66017D01*
X179224Y66238D01*
X179927Y66942D01*
X180148Y67272D01*
X180148Y67273D01*
X180529Y68191D01*
X180529Y68191D01*
X180606Y68581D01*
Y69576D01*
X180529Y69966D01*
X180529Y69966D01*
X180148Y70885D01*
X180148Y70885D01*
X179927Y71216D01*
X179224Y71919D01*
X178893Y72140D01*
X178893Y72140D01*
X177974Y72521D01*
X177974Y72521D01*
X177584Y72598D01*
D02*
G37*
G36*
X59224Y45336D02*
X59021Y45296D01*
X58426Y44898D01*
X58028Y44302D01*
X57988Y44100D01*
X59224D01*
Y45336D01*
D02*
G37*
G36*
X60224D02*
Y44100D01*
X61459D01*
X61419Y44302D01*
X61021Y44898D01*
X60426Y45296D01*
X60224Y45336D01*
D02*
G37*
G36*
X61459Y43100D02*
X60224D01*
Y41864D01*
X60426Y41904D01*
X61021Y42302D01*
X61419Y42898D01*
X61459Y43100D01*
D02*
G37*
G36*
X162902Y45981D02*
X161614D01*
Y44300D01*
X162902D01*
Y45981D01*
D02*
G37*
G36*
X25756Y47861D02*
Y44500D01*
X29117D01*
X29049Y45017D01*
X28657Y45964D01*
X28033Y46777D01*
X27220Y47401D01*
X26272Y47793D01*
X25756Y47861D01*
D02*
G37*
G36*
X113136Y48200D02*
X111900D01*
X111940Y47998D01*
X112338Y47402D01*
X112934Y47004D01*
X113136Y46964D01*
Y48200D01*
D02*
G37*
G36*
X165189Y45981D02*
X163902D01*
Y44300D01*
X165189D01*
Y45981D01*
D02*
G37*
G36*
X24756Y47861D02*
X24239Y47793D01*
X23292Y47401D01*
X22479Y46777D01*
X21855Y45964D01*
X21462Y45017D01*
X21394Y44500D01*
X24756D01*
Y47861D01*
D02*
G37*
G36*
X81100Y38736D02*
Y37500D01*
X82336D01*
X82296Y37702D01*
X81898Y38298D01*
X81302Y38696D01*
X81100Y38736D01*
D02*
G37*
G36*
X24756Y43500D02*
X21394D01*
X21462Y42983D01*
X21855Y42036D01*
X22479Y41223D01*
X23292Y40599D01*
X24239Y40207D01*
X24756Y40139D01*
Y43500D01*
D02*
G37*
G36*
X11009Y51832D02*
X10234Y51678D01*
X9578Y51239D01*
X9139Y50583D01*
X8986Y49809D01*
Y45720D01*
X3119D01*
Y37420D01*
X18898D01*
Y45720D01*
X13032D01*
Y49809D01*
X12878Y50583D01*
X12439Y51239D01*
X11783Y51678D01*
X11009Y51832D01*
D02*
G37*
G36*
X80100Y38736D02*
X79898Y38696D01*
X79302Y38298D01*
X78904Y37702D01*
X78864Y37500D01*
X80100D01*
Y38736D01*
D02*
G37*
G36*
X29117Y43500D02*
X25756D01*
Y40139D01*
X26272Y40207D01*
X27220Y40599D01*
X28033Y41223D01*
X28657Y42036D01*
X29049Y42983D01*
X29117Y43500D01*
D02*
G37*
G36*
X165189Y43300D02*
X163902D01*
Y41619D01*
X165189D01*
Y43300D01*
D02*
G37*
G36*
X59224Y43100D02*
X57988D01*
X58028Y42898D01*
X58426Y42302D01*
X59021Y41904D01*
X59224Y41864D01*
Y43100D01*
D02*
G37*
G36*
X162902Y43300D02*
X161614D01*
Y41619D01*
X162902D01*
Y43300D01*
D02*
G37*
G36*
X115372Y48200D02*
X114136D01*
Y46964D01*
X114338Y47004D01*
X114934Y47402D01*
X115331Y47998D01*
X115372Y48200D01*
D02*
G37*
G36*
X10509Y66979D02*
X3119D01*
Y63330D01*
X10509D01*
Y66979D01*
D02*
G37*
G36*
X18898D02*
X11509D01*
Y63330D01*
X18898D01*
Y66979D01*
D02*
G37*
G36*
X44900Y64200D02*
X43664D01*
X43704Y63998D01*
X44102Y63402D01*
X44698Y63004D01*
X44900Y62964D01*
Y64200D01*
D02*
G37*
G36*
X47136D02*
X45900D01*
Y62964D01*
X46102Y63004D01*
X46698Y63402D01*
X47096Y63998D01*
X47136Y64200D01*
D02*
G37*
G36*
X103000Y64936D02*
X102798Y64896D01*
X102202Y64498D01*
X101804Y63902D01*
X101764Y63700D01*
X103000D01*
Y64936D01*
D02*
G37*
G36*
X44900Y66436D02*
X44698Y66396D01*
X44102Y65998D01*
X43704Y65402D01*
X43664Y65200D01*
X44900D01*
Y66436D01*
D02*
G37*
G36*
X45900D02*
Y65200D01*
X47136D01*
X47096Y65402D01*
X46698Y65998D01*
X46102Y66396D01*
X45900Y66436D01*
D02*
G37*
G36*
X28500D02*
X28298Y66396D01*
X27702Y65998D01*
X27304Y65402D01*
X27264Y65200D01*
X28500D01*
Y66436D01*
D02*
G37*
G36*
X29500D02*
Y65200D01*
X30736D01*
X30696Y65402D01*
X30298Y65998D01*
X29702Y66396D01*
X29500Y66436D01*
D02*
G37*
G36*
X33700Y52710D02*
X31822D01*
Y50439D01*
X33700D01*
Y52710D01*
D02*
G37*
G36*
X36578D02*
X34700D01*
Y50439D01*
X36578D01*
Y52710D01*
D02*
G37*
G36*
X4336Y49400D02*
X3100D01*
Y48164D01*
X3302Y48204D01*
X3898Y48602D01*
X4296Y49198D01*
X4336Y49400D01*
D02*
G37*
G36*
X3100Y51636D02*
Y50400D01*
X4336D01*
X4296Y50602D01*
X3898Y51198D01*
X3302Y51596D01*
X3100Y51636D01*
D02*
G37*
G36*
X59724Y54135D02*
X59021Y53996D01*
X58627Y53732D01*
X46843D01*
Y53793D01*
X37757D01*
Y50612D01*
Y48053D01*
Y45494D01*
Y45025D01*
X46843D01*
Y45494D01*
Y48114D01*
X47349D01*
X47598Y47948D01*
X48300Y47808D01*
X49002Y47948D01*
X49598Y48346D01*
X49996Y48941D01*
X50135Y49643D01*
X50030Y50173D01*
X50332Y50673D01*
X58919D01*
X59021Y50604D01*
X59724Y50465D01*
X60426Y50604D01*
X61021Y51002D01*
X61419Y51598D01*
X61559Y52300D01*
X61419Y53002D01*
X61021Y53598D01*
X60426Y53996D01*
X59724Y54135D01*
D02*
G37*
G36*
X28500Y64200D02*
X27264D01*
X27304Y63998D01*
X27702Y63402D01*
X28298Y63004D01*
X28500Y62964D01*
Y64200D01*
D02*
G37*
G36*
X30736D02*
X29500D01*
Y62964D01*
X29702Y63004D01*
X30298Y63402D01*
X30696Y63998D01*
X30736Y64200D01*
D02*
G37*
G36*
X10509Y62330D02*
X3119D01*
Y58680D01*
X10509D01*
Y62330D01*
D02*
G37*
G36*
X18898D02*
X11509D01*
Y58680D01*
X18898D01*
Y62330D01*
D02*
G37*
G36*
X107900Y43836D02*
Y42600D01*
X109136D01*
X109096Y42802D01*
X108698Y43398D01*
X108102Y43796D01*
X107900Y43836D01*
D02*
G37*
G36*
X109136Y41600D02*
X107900D01*
Y40364D01*
X108102Y40404D01*
X108698Y40802D01*
X109096Y41398D01*
X109136Y41600D01*
D02*
G37*
G36*
X59224Y27000D02*
X57988D01*
X58028Y26798D01*
X58426Y26202D01*
X59021Y25804D01*
X59224Y25764D01*
Y27000D01*
D02*
G37*
G36*
X61459D02*
X60224D01*
Y25764D01*
X60426Y25804D01*
X61021Y26202D01*
X61419Y26798D01*
X61459Y27000D01*
D02*
G37*
G36*
X59224Y29236D02*
X59021Y29196D01*
X58426Y28798D01*
X58028Y28202D01*
X57988Y28000D01*
X59224D01*
Y29236D01*
D02*
G37*
G36*
X56700Y8136D02*
X56498Y8096D01*
X55902Y7698D01*
X55504Y7102D01*
X55464Y6900D01*
X56700D01*
Y8136D01*
D02*
G37*
G36*
X57700D02*
Y6900D01*
X58936D01*
X58896Y7102D01*
X58498Y7698D01*
X57902Y8096D01*
X57700Y8136D01*
D02*
G37*
G36*
X64436Y14400D02*
X63200D01*
Y13164D01*
X63402Y13204D01*
X63998Y13602D01*
X64396Y14198D01*
X64436Y14400D01*
D02*
G37*
%LPD*%
D10*
X164370Y34700D02*
D03*
X167520D02*
D03*
X170669D02*
D03*
X173819D02*
D03*
X176969D02*
D03*
D11*
X153543Y12259D02*
D03*
X187795D02*
D03*
Y33913D02*
D03*
X153543D02*
D03*
D12*
X83928Y80662D02*
D03*
Y74662D02*
D03*
X90001Y18300D02*
D03*
Y24300D02*
D03*
X108500Y71569D02*
D03*
Y65569D02*
D03*
Y53768D02*
D03*
Y59768D02*
D03*
X114301Y53768D02*
D03*
Y59768D02*
D03*
Y71569D02*
D03*
Y65569D02*
D03*
X84200Y18300D02*
D03*
Y24300D02*
D03*
D13*
X6119Y4939D02*
D03*
X12119D02*
D03*
X6119Y10740D02*
D03*
X12119D02*
D03*
X183200Y77100D02*
D03*
X189200D02*
D03*
X171399D02*
D03*
X177399D02*
D03*
X84100Y6900D02*
D03*
X90100D02*
D03*
X46757Y58100D02*
D03*
X40757D02*
D03*
D14*
X11009Y41570D02*
D03*
Y62830D02*
D03*
D15*
X28528Y75773D02*
D03*
X7269D02*
D03*
D16*
X83328Y69090D02*
D03*
Y63972D02*
D03*
X145408Y26277D02*
D03*
Y21159D02*
D03*
X34200Y53210D02*
D03*
Y58328D02*
D03*
D17*
X141026Y20175D02*
D03*
Y24506D02*
D03*
D18*
X89029Y64700D02*
D03*
X97029D02*
D03*
D19*
X66130Y77151D02*
D03*
X44870D02*
D03*
D20*
X112840Y15100D02*
D03*
X104966Y11360D02*
D03*
Y18840D02*
D03*
X147955Y68078D02*
D03*
X140081Y64338D02*
D03*
Y71818D02*
D03*
X147955Y53290D02*
D03*
X140081Y49549D02*
D03*
Y57030D02*
D03*
X134737Y53290D02*
D03*
X126863Y49549D02*
D03*
Y57030D02*
D03*
X134737Y68078D02*
D03*
X126863Y64338D02*
D03*
Y71818D02*
D03*
D21*
X42300Y52202D02*
D03*
Y49643D02*
D03*
Y47084D02*
D03*
Y44525D02*
D03*
Y41966D02*
D03*
Y39407D02*
D03*
Y36848D02*
D03*
Y34289D02*
D03*
Y31730D02*
D03*
Y29171D02*
D03*
Y26612D02*
D03*
Y24053D02*
D03*
Y21494D02*
D03*
Y18935D02*
D03*
Y16376D02*
D03*
Y13817D02*
D03*
Y11258D02*
D03*
Y8698D02*
D03*
Y6139D02*
D03*
X71434Y52202D02*
D03*
Y49643D02*
D03*
Y47084D02*
D03*
Y44525D02*
D03*
Y41966D02*
D03*
Y39407D02*
D03*
Y36848D02*
D03*
Y34289D02*
D03*
Y31730D02*
D03*
Y29171D02*
D03*
Y26612D02*
D03*
Y24053D02*
D03*
Y21494D02*
D03*
Y18935D02*
D03*
Y16376D02*
D03*
Y13817D02*
D03*
Y11258D02*
D03*
Y8698D02*
D03*
Y6139D02*
D03*
D22*
X145581Y13513D02*
D03*
Y8002D02*
D03*
X111996Y37327D02*
D03*
Y31815D02*
D03*
X117797D02*
D03*
Y37327D02*
D03*
X129433Y8002D02*
D03*
Y13513D02*
D03*
D23*
X167732Y43800D02*
D03*
X163402D02*
D03*
D24*
X97830Y41047D02*
D03*
X103736Y46953D02*
D03*
Y41047D02*
D03*
Y43016D02*
D03*
Y44984D02*
D03*
X97830Y46953D02*
D03*
Y44984D02*
D03*
Y43016D02*
D03*
D25*
X101768Y46953D02*
D03*
X99799D02*
D03*
Y41047D02*
D03*
X101768D02*
D03*
D26*
X105695Y36205D02*
D03*
Y28205D02*
D03*
D27*
X28430Y31877D02*
D03*
Y26877D02*
D03*
Y21877D02*
D03*
Y16877D02*
D03*
X7170D02*
D03*
Y21877D02*
D03*
Y26877D02*
D03*
Y31877D02*
D03*
D28*
X30103Y10663D02*
D03*
X24591D02*
D03*
X30103Y4862D02*
D03*
X24591D02*
D03*
D29*
X140752Y8100D02*
D03*
X135634D02*
D03*
X140752Y15580D02*
D03*
X138193Y8100D02*
D03*
X135634Y15580D02*
D03*
D30*
X153328Y71828D02*
D03*
Y64328D02*
D03*
Y57040D02*
D03*
Y49540D02*
D03*
D31*
X161328Y68028D02*
D03*
Y53240D02*
D03*
D32*
X86987Y10187D02*
X89300Y12500D01*
X74829Y8698D02*
X76318Y10187D01*
X86987D01*
X71434Y8698D02*
X74829D01*
X65758Y11258D02*
X71434D01*
X65810Y26612D02*
X71434D01*
X59724Y32698D02*
X65810Y26612D01*
X62800Y56700D02*
X65100Y54400D01*
Y50023D02*
Y54400D01*
Y50023D02*
X68038Y47084D01*
X171399Y72000D02*
Y77100D01*
X183200Y62674D02*
Y77100D01*
X174744Y44044D02*
X181100Y50400D01*
X174744Y44000D02*
Y44044D01*
X177399Y77100D02*
X183200D01*
X167600Y43932D02*
Y49000D01*
Y43932D02*
X167732Y43800D01*
X167520Y43587D02*
X167732Y43800D01*
X167520Y34700D02*
Y43587D01*
Y34700D02*
X167600Y34780D01*
X30103Y4862D02*
X32365Y2600D01*
X30103Y10663D02*
Y11110D01*
Y10663D02*
X35751D01*
X30103Y4862D02*
Y10663D01*
X12119Y4939D02*
X16800D01*
X28430Y31877D02*
X32623D01*
X38905Y13817D02*
X42300D01*
X35751Y10663D02*
X38905Y13817D01*
X85833Y34289D02*
X101400Y18722D01*
Y14926D02*
Y18722D01*
Y14926D02*
X104966Y11360D01*
X71434Y34289D02*
X85833D01*
X140081Y49549D02*
X143178Y46452D01*
X7170Y21877D02*
X12400D01*
X11009Y49809D02*
X11100Y49900D01*
X6119Y4939D02*
Y10740D01*
X7170Y31877D02*
X16800D01*
X2600Y26877D02*
X7170D01*
X2600Y10740D02*
X6119D01*
X11100Y39970D02*
X12530D01*
X134600Y23000D02*
Y29500D01*
Y23000D02*
X137425Y20175D01*
X141026D01*
X137500Y24506D02*
X141026D01*
X117797Y37327D02*
X128500Y26624D01*
Y14446D02*
Y26624D01*
X78500Y6139D02*
X83339D01*
X84100Y6900D01*
X71434Y6139D02*
X78500D01*
X86700Y14979D02*
X90001Y18280D01*
X86700Y13300D02*
Y14979D01*
X84200Y14500D02*
Y18300D01*
X90001Y18280D02*
Y18300D01*
X77676Y30200D02*
X84121D01*
X90001Y24320D01*
Y24300D02*
Y24320D01*
X79200Y27900D02*
X80600D01*
X84200Y24300D01*
X77435Y18935D02*
X79200Y20700D01*
X53635Y18935D02*
X57200Y22500D01*
X42300Y18935D02*
X53635D01*
X59336Y20000D02*
X59400D01*
X111996Y37327D02*
X117797D01*
X103736Y38164D02*
X104573Y37327D01*
X103736Y38164D02*
Y41047D01*
X59626Y52202D02*
X59724Y52300D01*
X68038Y47084D02*
X71434D01*
X87718Y69090D02*
X89029Y70400D01*
X83328Y69090D02*
X87718D01*
X161147Y61100D02*
X161300D01*
X157500Y60900D02*
Y67656D01*
X153328Y71828D02*
X157500Y67656D01*
X174744Y44000D02*
X187795D01*
X49363Y6139D02*
X61024Y17800D01*
X83928Y69690D02*
Y74662D01*
X162987Y26287D02*
X167635Y30935D01*
X108500Y71569D02*
X114301D01*
X126614D02*
X126863Y71818D01*
X114301Y71569D02*
X126614D01*
X149578Y53290D02*
X153328Y49540D01*
X147955Y53290D02*
X149578D01*
X114301Y59768D02*
Y65569D01*
X108500Y59768D02*
Y65569D01*
X114301Y59768D02*
X124520Y49549D01*
X126863D01*
X133858Y80600D02*
X134737Y79721D01*
X147955Y78949D02*
X149606Y80600D01*
X161300Y68000D02*
X161328Y68028D01*
X114301Y65569D02*
X115533Y64338D01*
X126863D01*
X97830Y46953D02*
Y52380D01*
X97810Y52400D02*
X97830Y52380D01*
X97649Y43197D02*
X97830Y43016D01*
X96205Y43197D02*
X97649D01*
X95826Y41047D02*
X97830D01*
X96945Y44984D02*
X97830D01*
X88180Y52400D02*
X89090Y51490D01*
X103736Y44984D02*
Y46953D01*
X101768D02*
X103736D01*
X99799D02*
X101768D01*
X42300Y6139D02*
X49363D01*
X71434Y18935D02*
X77435D01*
X161300Y64200D02*
Y68000D01*
X134943Y59200D02*
X140081Y64338D01*
X134737Y53290D02*
X134943Y53496D01*
X145408Y26277D02*
Y26580D01*
X134943Y53496D02*
Y56400D01*
X134491Y59200D02*
X134943D01*
X131678Y50722D02*
Y56387D01*
X134491Y59200D01*
X131678Y50722D02*
X132851Y49549D01*
X140081D01*
X143178Y46452D02*
X155852D01*
X161328Y51928D01*
Y53240D01*
X153328Y57040D02*
X154288Y58000D01*
X158047D02*
X161147Y61100D01*
X154288Y58000D02*
X158047D01*
X147955Y53290D02*
X149200Y54534D01*
Y58800D01*
X153328Y62928D01*
Y64328D01*
X83328Y69090D02*
X83928Y69690D01*
X83328Y63972D02*
X84056Y64700D01*
X170300Y29200D02*
Y34555D01*
X103736Y41047D02*
Y43016D01*
X96756Y45173D02*
X96945D01*
X96002Y45927D02*
X96756Y45173D01*
X96002Y45927D02*
Y47978D01*
X96043Y48019D01*
Y50914D01*
X95510Y51447D02*
X96043Y50914D01*
X95510Y51447D02*
Y51490D01*
X94600Y52400D02*
X95510Y51490D01*
X94214Y45187D02*
Y48719D01*
Y45187D02*
X96205Y43197D01*
X94214Y48719D02*
X94256Y48760D01*
X91390Y51626D02*
Y52400D01*
Y51626D02*
X94256Y48760D01*
X92427Y44447D02*
Y48061D01*
Y44447D02*
X95826Y41047D01*
X89090Y51398D02*
Y51490D01*
Y51398D02*
X92427Y48061D01*
X42300Y26612D02*
X49235D01*
X59724Y37100D01*
X71434Y21494D02*
X76294D01*
X77200Y22400D01*
X42300Y52202D02*
X59626D01*
X103500Y59200D02*
X107932D01*
X108500Y59768D01*
X46757Y58100D02*
X48157Y56700D01*
X62800D01*
X34428Y58100D02*
X40757D01*
X34200Y58328D02*
X34428Y58100D01*
X145408Y21159D02*
X145581Y20986D01*
X140752Y15580D02*
Y19901D01*
X141026Y20175D01*
X144424D01*
X145408Y21159D01*
X145418Y26287D02*
X162987D01*
X145408Y26277D02*
X145418Y26287D01*
X145605Y26474D01*
X42300Y49643D02*
X48300D01*
X42300Y36848D02*
X50852D01*
X51200Y36500D01*
X30103Y11110D02*
X34100Y15107D01*
Y30400D01*
X32623Y31877D02*
X34100Y30400D01*
X42300Y13817D02*
X49917D01*
X42300Y16376D02*
X47400D01*
X42300Y8698D02*
X48034D01*
X49917Y13817D02*
X52000Y15900D01*
Y16300D01*
X183200Y62674D02*
X189834Y56040D01*
Y54059D02*
Y56040D01*
X164000Y59300D02*
X169241Y54059D01*
X189834D01*
X96945Y44984D02*
Y45173D01*
X167635Y30935D02*
Y36838D01*
X65500Y11000D02*
X65758Y11258D01*
X83663Y7337D02*
X84200Y7874D01*
X48034Y8698D02*
X59336Y20000D01*
X129433Y13513D02*
X133567D01*
X135634Y15580D01*
X128500Y14446D02*
X129433Y13513D01*
X32365Y2600D02*
X117200D01*
X128113Y13513D01*
X129433D01*
X104573Y37327D02*
X111996D01*
X142819Y13513D02*
X145581D01*
X140752Y15580D02*
X142819Y13513D01*
X187795Y44000D02*
X189834Y46040D01*
D33*
X30178Y77151D02*
X44870D01*
X28800Y75773D02*
X30178Y77151D01*
X97029Y58734D02*
Y64700D01*
X102347Y53416D02*
X115079Y40684D01*
X102347Y53416D02*
X102347D01*
X115079Y40684D02*
X157872D01*
X97029Y58734D02*
X102347Y53416D01*
X157872Y40684D02*
X164001Y34555D01*
X68300Y65200D02*
X80200Y53300D01*
Y43606D02*
Y53300D01*
Y43606D02*
X104966Y18840D01*
X66130Y77151D02*
X68300Y74980D01*
Y65200D02*
Y74980D01*
X114737Y15100D02*
X119437Y19800D01*
X112840Y15100D02*
X114737D01*
X11009Y41570D02*
Y49809D01*
X80065Y59600D02*
X83465Y56200D01*
X91390D01*
X106732Y53768D02*
X108500D01*
X104300Y56200D02*
X106732Y53768D01*
X103500Y56200D02*
X104300D01*
X140081Y71818D02*
Y75600D01*
X126863Y71818D02*
X130600D01*
X108500Y53768D02*
X114301D01*
X134737Y68078D02*
Y79721D01*
X147955Y68078D02*
Y78949D01*
X134737Y63537D02*
Y68078D01*
X126863Y57030D02*
X128230D01*
X126863Y64338D02*
X130600D01*
X133147Y61984D02*
X133184D01*
X134737Y63537D01*
Y53290D02*
X147955D01*
X140081Y57030D02*
X144800Y61748D01*
Y61748D01*
X147955Y64904D01*
Y68078D01*
X128230Y57030D02*
X131516Y60316D01*
Y60353D01*
X133147Y61984D01*
X84056Y64700D02*
X89029D01*
X44870Y77151D02*
X50100D01*
X80065Y63972D02*
X83328D01*
D34*
X189834Y54059D02*
D03*
D35*
Y44059D02*
D03*
D36*
X25256Y44000D02*
D03*
X174744D02*
D03*
D37*
X149606Y80600D02*
D03*
X133858D02*
D03*
D38*
X65500Y11258D02*
D03*
X157500Y44400D02*
D03*
X171399Y72000D02*
D03*
X181100Y50400D02*
D03*
X167600Y49000D02*
D03*
X112100Y9400D02*
D03*
X126863Y37900D02*
D03*
X111996Y24100D02*
D03*
X12400Y21877D02*
D03*
X16800Y4939D02*
D03*
Y31877D02*
D03*
X2600Y26877D02*
D03*
Y10740D02*
D03*
X134600Y29500D02*
D03*
X137500Y24506D02*
D03*
X119437Y19800D02*
D03*
X78500Y6139D02*
D03*
X86700Y13300D02*
D03*
X89300Y12500D02*
D03*
X84200Y14500D02*
D03*
X77200Y30200D02*
D03*
X79200Y20700D02*
D03*
X57200Y22500D02*
D03*
X59724Y52300D02*
D03*
X126863Y53290D02*
D03*
X113636Y48700D02*
D03*
X2600Y49900D02*
D03*
X77000Y83200D02*
D03*
X45400Y64700D02*
D03*
X29000D02*
D03*
X89029Y70400D02*
D03*
X80065Y59600D02*
D03*
X91390Y56200D02*
D03*
X161300Y61100D02*
D03*
X157500Y60900D02*
D03*
X164000Y59300D02*
D03*
X11100Y49900D02*
D03*
X15748Y83200D02*
D03*
X61024Y17800D02*
D03*
X59112Y20150D02*
D03*
X59724Y27500D02*
D03*
X130600Y71818D02*
D03*
X140081Y75600D02*
D03*
X97810Y52400D02*
D03*
X88180D02*
D03*
X91390D02*
D03*
X94600D02*
D03*
X161300Y64200D02*
D03*
X130600Y64338D02*
D03*
X134943Y59200D02*
D03*
X103500Y56200D02*
D03*
Y59200D02*
D03*
X134943Y56400D02*
D03*
X50100Y77151D02*
D03*
X80065Y63972D02*
D03*
X59724Y32698D02*
D03*
X170300Y29200D02*
D03*
X59724Y43600D02*
D03*
Y37100D02*
D03*
X79200Y27900D02*
D03*
X77200Y22400D02*
D03*
X170300Y19800D02*
D03*
X94200Y83200D02*
D03*
X121400D02*
D03*
X56800D02*
D03*
X150204Y19800D02*
D03*
X184600Y83200D02*
D03*
X195600D02*
D03*
Y19800D02*
D03*
Y26600D02*
D03*
X57200Y6400D02*
D03*
X107400Y42100D02*
D03*
X51200Y36500D02*
D03*
X48300Y49643D02*
D03*
X20800Y25600D02*
D03*
Y19000D02*
D03*
X47400Y16376D02*
D03*
X52000Y16300D02*
D03*
X103500Y63200D02*
D03*
X80600Y37000D02*
D03*
X62700Y14900D02*
D03*
X138200Y12000D02*
D03*
X125100Y6200D02*
D03*
X170200Y4400D02*
D03*
M02*
