G04 Layer_Color=8421504*
%FSLAX25Y25*%
%MOIN*%
G70*
G01*
G75*
%ADD10R,0.02756X0.06299*%
%ADD11R,0.06299X0.07874*%
%ADD12R,0.04000X0.04000*%
%ADD13R,0.04000X0.04000*%
%ADD14R,0.13780X0.06299*%
%ADD15R,0.06299X0.13780*%
%ADD16R,0.02756X0.03543*%
%ADD17R,0.02362X0.01575*%
%ADD18R,0.05000X0.05000*%
%ADD19R,0.06299X0.11024*%
%ADD20R,0.03543X0.03150*%
%ADD21R,0.07087X0.01181*%
%ADD22R,0.03543X0.02756*%
%ADD23R,0.01575X0.02362*%
%ADD24R,0.01083X0.00984*%
%ADD25R,0.00984X0.01083*%
%ADD26R,0.05000X0.05000*%
%ADD27R,0.06102X0.02362*%
%ADD28R,0.02756X0.03543*%
%ADD29R,0.01181X0.02953*%
%ADD30R,0.03600X0.03600*%
%ADD31R,0.05000X0.03600*%
D10*
X164370Y34700D02*
D03*
X167520D02*
D03*
X170669D02*
D03*
X173819D02*
D03*
X176969D02*
D03*
D11*
X153543Y12259D02*
D03*
X187795D02*
D03*
Y33913D02*
D03*
X153543D02*
D03*
D12*
X83928Y80662D02*
D03*
Y74662D02*
D03*
X90001Y18300D02*
D03*
Y24300D02*
D03*
X108500Y71569D02*
D03*
Y65569D02*
D03*
Y53768D02*
D03*
Y59768D02*
D03*
X114301Y53768D02*
D03*
Y59768D02*
D03*
Y71569D02*
D03*
Y65569D02*
D03*
X84200Y18300D02*
D03*
Y24300D02*
D03*
D13*
X6119Y4939D02*
D03*
X12119D02*
D03*
X6119Y10740D02*
D03*
X12119D02*
D03*
X183200Y77100D02*
D03*
X189200D02*
D03*
X171399D02*
D03*
X177399D02*
D03*
X84100Y6900D02*
D03*
X90100D02*
D03*
X46757Y58100D02*
D03*
X40757D02*
D03*
D14*
X11009Y41570D02*
D03*
Y62830D02*
D03*
D15*
X28528Y75773D02*
D03*
X7269D02*
D03*
D16*
X83328Y69090D02*
D03*
Y63972D02*
D03*
X145408Y26277D02*
D03*
Y21159D02*
D03*
X34200Y53210D02*
D03*
Y58328D02*
D03*
D17*
X141026Y20175D02*
D03*
Y24506D02*
D03*
D18*
X89029Y64700D02*
D03*
X97029D02*
D03*
D19*
X66130Y77151D02*
D03*
X44870D02*
D03*
D20*
X112840Y15100D02*
D03*
X104966Y11360D02*
D03*
Y18840D02*
D03*
X147955Y68078D02*
D03*
X140081Y64338D02*
D03*
Y71818D02*
D03*
X147955Y53290D02*
D03*
X140081Y49549D02*
D03*
Y57030D02*
D03*
X134737Y53290D02*
D03*
X126863Y49549D02*
D03*
Y57030D02*
D03*
X134737Y68078D02*
D03*
X126863Y64338D02*
D03*
Y71818D02*
D03*
D21*
X42300Y52202D02*
D03*
Y49643D02*
D03*
Y47084D02*
D03*
Y44525D02*
D03*
Y41966D02*
D03*
Y39407D02*
D03*
Y36848D02*
D03*
Y34289D02*
D03*
Y31730D02*
D03*
Y29171D02*
D03*
Y26612D02*
D03*
Y24053D02*
D03*
Y21494D02*
D03*
Y18935D02*
D03*
Y16376D02*
D03*
Y13817D02*
D03*
Y11258D02*
D03*
Y8698D02*
D03*
Y6139D02*
D03*
X71434Y52202D02*
D03*
Y49643D02*
D03*
Y47084D02*
D03*
Y44525D02*
D03*
Y41966D02*
D03*
Y39407D02*
D03*
Y36848D02*
D03*
Y34289D02*
D03*
Y31730D02*
D03*
Y29171D02*
D03*
Y26612D02*
D03*
Y24053D02*
D03*
Y21494D02*
D03*
Y18935D02*
D03*
Y16376D02*
D03*
Y13817D02*
D03*
Y11258D02*
D03*
Y8698D02*
D03*
Y6139D02*
D03*
D22*
X145581Y13513D02*
D03*
Y8002D02*
D03*
X111996Y37327D02*
D03*
Y31815D02*
D03*
X117797D02*
D03*
Y37327D02*
D03*
X129433Y8002D02*
D03*
Y13513D02*
D03*
D23*
X167732Y43800D02*
D03*
X163402D02*
D03*
D24*
X97830Y41047D02*
D03*
X103736Y46953D02*
D03*
Y41047D02*
D03*
Y43016D02*
D03*
Y44984D02*
D03*
X97830Y46953D02*
D03*
Y44984D02*
D03*
Y43016D02*
D03*
D25*
X101768Y46953D02*
D03*
X99799D02*
D03*
Y41047D02*
D03*
X101768D02*
D03*
D26*
X105695Y36205D02*
D03*
Y28205D02*
D03*
D27*
X28430Y31877D02*
D03*
Y26877D02*
D03*
Y21877D02*
D03*
Y16877D02*
D03*
X7170D02*
D03*
Y21877D02*
D03*
Y26877D02*
D03*
Y31877D02*
D03*
D28*
X30103Y10663D02*
D03*
X24591D02*
D03*
X30103Y4862D02*
D03*
X24591D02*
D03*
D29*
X140752Y8100D02*
D03*
X135634D02*
D03*
X140752Y15580D02*
D03*
X138193Y8100D02*
D03*
X135634Y15580D02*
D03*
D30*
X153328Y71828D02*
D03*
Y64328D02*
D03*
Y57040D02*
D03*
Y49540D02*
D03*
D31*
X161328Y68028D02*
D03*
Y53240D02*
D03*
M02*
