M48
;Layer_Color=9474304
;FILE_FORMAT=2:5
INCH,LZ
;TYPE=PLATED
T1F00S00C0.00800
T2F00S00C0.02800
T3F00S00C0.03000
T4F00S00C0.03543
T5F00S00C0.05787
%
T01
X01956Y00198
Y00266
X01703Y00292
Y00198
X01702Y00044
X0150204Y00198
Y00263
X01375Y0024506
X01346Y00295
X0126863Y00379
X01074Y00421
X00988Y00353
X00926Y0039212
X00904Y0042216
X00806Y0037
X00772Y00302
X00792Y00279
Y00207
X00772Y00224
X00842Y00145
X00867Y00133
X00893Y00125
X00918Y00103
X00989Y00125
X01198
X0119437Y00198
X0111996Y00241
X01251Y00062
X01382Y0012
X00785Y0006139
X00572Y00064
Y001
X00627Y00149
X0061224Y0018
X0059112Y002015
X00572Y00225
X0059724Y00275
Y0032698
Y00371
Y00436
X00512Y00365
X0034Y00367
X00474Y0016376
X0052Y00163
X00208Y0019
Y00256
X00168Y0031877
X00124Y0021877
Y00169
X00024Y001074
Y00268
X00168Y0004939
X00111Y00499
X00026
X0015748Y00832
X0029Y00647
X00454
X00501Y0077151
X00568Y00832
X0077
X00942
X00889Y00692
X0080065Y0063972
Y00596
X009139Y00562
X00879Y00476
Y0044984
X01035Y00562
Y00592
Y00632
X01178Y00715
X01306Y0071818
Y0064338
X01429
X0153328Y0064328
X0157541Y0060959
X016Y00593
X01638Y00576
X01667Y00526
X01704Y00495
X01794Y005
X01793Y00576
X01703Y00696
X0161328Y00718
X0153328Y004954
X0140081Y00541
X01207Y00532
X0113636Y00487
X01214Y00832
X00592Y00512
X00483Y0049643
X01846Y00832
X01956
T02
X00512Y00657
T03
X0133858Y00806
X0149606
T04
X0189834Y0044059
Y0054059
T05
X0174744Y0044
X0025256
M30
