M48
;Layer_Color=9474304
;FILE_FORMAT=2:5
INCH,LZ
;TYPE=PLATED
T1F00S00C0.00800
T2F00S00C0.03000
T3F00S00C0.03543
%
T01
X01956Y00198
Y00266
X01703Y00292
Y00198
X01702Y00044
X0150204Y00198
X01375Y0024506
X01346Y00295
X0126863Y00379
X01074Y00421
X0111996Y00241
X0119437Y00198
X01121Y00094
X01251Y00062
X01382Y0012
X00893Y00125
X00867Y00133
X00842Y00145
X00792Y00207
X00772Y00224
X00792Y00279
X00772Y00302
X00806Y0037
X0059724Y00371
Y0032698
Y00275
X00572Y00225
X0059112Y002015
X0061024Y00178
X00627Y00149
X00655Y0011258
X00572Y00064
X0052Y00163
X00474Y0016376
X00512Y00365
X0059724Y00436
X00785Y0006139
X01575Y00444
X00168Y0031877
X00208Y00256
Y0019
X00124Y0021877
X00026Y0026877
Y001074
X00168Y0004939
X00111Y00499
X00026
X0015748Y00832
X0029Y00647
X00454
X00501Y0077151
X00568Y00832
X0077
X00942
X0089029Y00704
X0080065Y0063972
Y00596
X009139Y00562
Y00524
X00946
X009781
X01035Y00562
Y00592
Y00632
X0113636Y00487
X0126863Y005329
X0134943Y00564
Y00592
X01306Y0064338
Y0071818
X0140081Y00756
X01214Y00832
X01575Y00609
X01613Y00611
Y00642
X0164Y00593
X01676Y0049
X01811Y00504
X0171399Y0072
X008818Y00524
X0059724Y00523
X00483Y0049643
X01846Y00832
X01956
T02
X0174744Y0044
X0025256
X0133858Y00806
X0149606
T03
X0189834Y0044059
Y0054059
M30
