G04 Layer_Color=65535*
%FSLAX25Y25*%
%MOIN*%
G70*
G01*
G75*
%ADD32C,0.01000*%
%ADD40C,0.00600*%
%ADD41C,0.00787*%
%ADD42C,0.00984*%
%ADD43C,0.00800*%
%ADD44C,0.00500*%
D32*
X96051Y48753D02*
X96364D01*
D40*
X133734Y8100D02*
G03*
X133734Y8100I-300J0D01*
G01*
X108495Y4105D02*
Y8305D01*
X166310Y81100D02*
Y84100D01*
Y76499D02*
Y79499D01*
X37757Y56000D02*
Y60200D01*
X32700Y55769D02*
X35700D01*
X82100Y21300D02*
X86300D01*
X112201Y68569D02*
X116401D01*
X112201Y56768D02*
X116401D01*
X106400D02*
X110600D01*
X106400Y68569D02*
X110600D01*
X87901Y21300D02*
X92101D01*
X31500Y45504D02*
X35700D01*
X31200Y8640D02*
Y12840D01*
X127333Y10757D02*
X131533D01*
X115697Y34571D02*
X119897D01*
X109896Y34571D02*
X114096D01*
X166517Y44200D02*
X168683D01*
X143481Y10757D02*
X147681D01*
X87100Y4800D02*
Y9000D01*
X180981Y60598D02*
X185180D01*
X186782Y66600D02*
X190981D01*
X9119Y8640D02*
Y12840D01*
X139943Y22341D02*
X142109D01*
X137699Y39269D02*
X140699D01*
X81828Y66531D02*
X84828D01*
X9119Y2839D02*
Y7039D01*
X81828Y77662D02*
X86028D01*
D41*
X16356Y34220D02*
G03*
X19244Y34220I1444J0D01*
G01*
X56227Y53482D02*
G03*
X57507Y53482I640J0D01*
G01*
X105503Y10000D02*
Y10400D01*
Y15100D02*
Y17900D01*
Y22600D02*
Y23000D01*
X112203Y18900D02*
Y23000D01*
Y10000D02*
Y14100D01*
X105503Y10000D02*
X112203D01*
X105503Y23000D02*
X112203D01*
X127400Y46790D02*
Y47190D01*
Y51890D02*
Y54690D01*
Y59390D02*
Y59790D01*
X134100Y55690D02*
Y59790D01*
Y46790D02*
Y50890D01*
X127400Y46790D02*
X134100D01*
X127400Y59790D02*
X134100D01*
X127400Y74578D02*
X134100D01*
X127400Y61578D02*
X134100D01*
Y65678D01*
Y70478D02*
Y74578D01*
X127400Y74178D02*
Y74578D01*
Y66678D02*
Y69478D01*
Y61578D02*
Y61978D01*
X140618Y59790D02*
X147318D01*
X140618Y46790D02*
X147318D01*
Y50890D01*
Y55690D02*
Y59790D01*
X140618Y59390D02*
Y59790D01*
Y51890D02*
Y54690D01*
Y46790D02*
Y47190D01*
Y74578D02*
X147318D01*
X140618Y61578D02*
X147318D01*
Y65678D01*
Y70478D02*
Y74578D01*
X140618Y74178D02*
Y74578D01*
Y66678D02*
Y69478D01*
Y61578D02*
Y61978D01*
X13469Y34220D02*
X16356D01*
X19244D02*
X22131D01*
X13469Y14535D02*
X22131D01*
X13469D02*
Y34220D01*
X22131Y14535D02*
Y34220D01*
X49131Y4860D02*
Y53482D01*
Y4860D02*
X64603D01*
Y53482D01*
X57507D02*
X64603D01*
X49131D02*
X56227D01*
X119444Y16524D02*
X116820D01*
X116164Y15868D01*
Y14556D01*
X116820Y13900D01*
X119444D01*
X120100Y14556D01*
Y15868D01*
X118788Y15212D02*
X120100Y16524D01*
Y15868D02*
X119444Y16524D01*
X120100Y17836D02*
Y19148D01*
Y18492D01*
X116164D01*
X116820Y17836D01*
X115495Y4400D02*
Y8336D01*
X117463D01*
X118119Y7680D01*
Y6368D01*
X117463Y5712D01*
X115495D01*
X116807D02*
X118119Y4400D01*
X122054D02*
X119430D01*
X122054Y7024D01*
Y7680D01*
X121398Y8336D01*
X120086D01*
X119430Y7680D01*
X123366D02*
X124022Y8336D01*
X125334D01*
X125990Y7680D01*
Y7024D01*
X125334Y6368D01*
X124678D01*
X125334D01*
X125990Y5712D01*
Y5056D01*
X125334Y4400D01*
X124022D01*
X123366Y5056D01*
X122944Y52824D02*
X120320D01*
X119664Y52168D01*
Y50856D01*
X120320Y50200D01*
X122944D01*
X123600Y50856D01*
Y52168D01*
X122288Y51512D02*
X123600Y52824D01*
Y52168D02*
X122944Y52824D01*
X119664Y54136D02*
Y56760D01*
X120320D01*
X122944Y54136D01*
X123600D01*
X172210Y81400D02*
Y85336D01*
X174178D01*
X174834Y84680D01*
Y83368D01*
X174178Y82712D01*
X172210D01*
X173522D02*
X174834Y81400D01*
X178769D02*
X176145D01*
X178769Y84024D01*
Y84680D01*
X178113Y85336D01*
X176801D01*
X176145Y84680D01*
X180081Y81400D02*
X181393D01*
X180737D01*
Y85336D01*
X180081Y84680D01*
X172210Y75400D02*
Y79336D01*
X174178D01*
X174834Y78680D01*
Y77368D01*
X174178Y76712D01*
X172210D01*
X173522D02*
X174834Y75400D01*
X178769D02*
X176145D01*
X178769Y78024D01*
Y78680D01*
X178113Y79336D01*
X176801D01*
X176145Y78680D01*
X182705Y75400D02*
X180081D01*
X182705Y78024D01*
Y78680D01*
X182049Y79336D01*
X180737D01*
X180081Y78680D01*
X144320Y25324D02*
X143664Y24668D01*
Y23356D01*
X144320Y22700D01*
X146944D01*
X147600Y23356D01*
Y24668D01*
X146944Y25324D01*
Y26636D02*
X147600Y27292D01*
Y28604D01*
X146944Y29260D01*
X144320D01*
X143664Y28604D01*
Y27292D01*
X144320Y26636D01*
X144976D01*
X145632Y27292D01*
Y29260D01*
X30800Y51000D02*
X26864D01*
Y52968D01*
X27520Y53624D01*
X28832D01*
X29488Y52968D01*
Y51000D01*
Y52312D02*
X30800Y53624D01*
Y54936D02*
Y56248D01*
Y55592D01*
X26864D01*
X27520Y54936D01*
X30800Y58215D02*
Y59527D01*
Y58872D01*
X26864D01*
X27520Y58215D01*
X39800Y66036D02*
Y62100D01*
X41768D01*
X42424Y62756D01*
Y65380D01*
X41768Y66036D01*
X39800D01*
X43736Y62100D02*
X45048D01*
X44392D01*
Y66036D01*
X43736Y65380D01*
X85600Y27700D02*
X81664D01*
Y29668D01*
X82320Y30324D01*
X83632D01*
X84288Y29668D01*
Y27700D01*
Y29012D02*
X85600Y30324D01*
Y31636D02*
Y32948D01*
Y32292D01*
X81664D01*
X82320Y31636D01*
X81664Y34916D02*
Y37539D01*
X82320D01*
X84944Y34916D01*
X85600D01*
X116300Y75900D02*
X112364D01*
Y77868D01*
X113020Y78524D01*
X114332D01*
X114988Y77868D01*
Y75900D01*
Y77212D02*
X116300Y78524D01*
Y79836D02*
Y81148D01*
Y80492D01*
X112364D01*
X113020Y79836D01*
X112364Y85739D02*
Y83116D01*
X114332D01*
X113676Y84427D01*
Y85083D01*
X114332Y85739D01*
X115644D01*
X116300Y85083D01*
Y83772D01*
X115644Y83116D01*
X116200Y40278D02*
X112264D01*
Y42246D01*
X112920Y42902D01*
X114232D01*
X114888Y42246D01*
Y40278D01*
Y41590D02*
X116200Y42902D01*
Y44214D02*
Y45526D01*
Y44870D01*
X112264D01*
X112920Y44214D01*
X115544Y47493D02*
X116200Y48149D01*
Y49461D01*
X115544Y50117D01*
X112920D01*
X112264Y49461D01*
Y48149D01*
X112920Y47493D01*
X113576D01*
X114232Y48149D01*
Y50117D01*
X110350Y40278D02*
X106414D01*
Y42246D01*
X107070Y42902D01*
X108382D01*
X109038Y42246D01*
Y40278D01*
Y41590D02*
X110350Y42902D01*
Y44214D02*
Y45526D01*
Y44870D01*
X106414D01*
X107070Y44214D01*
Y47493D02*
X106414Y48149D01*
Y49461D01*
X107070Y50117D01*
X107726D01*
X108382Y49461D01*
X109038Y50117D01*
X109694D01*
X110350Y49461D01*
Y48149D01*
X109694Y47493D01*
X109038D01*
X108382Y48149D01*
X107726Y47493D01*
X107070D01*
X108382Y48149D02*
Y49461D01*
X110200Y75900D02*
X106264D01*
Y77868D01*
X106920Y78524D01*
X108232D01*
X108888Y77868D01*
Y75900D01*
Y77212D02*
X110200Y78524D01*
Y79836D02*
Y81148D01*
Y80492D01*
X106264D01*
X106920Y79836D01*
X110200Y85083D02*
X106264D01*
X108232Y83116D01*
Y85739D01*
X92000Y27700D02*
X88064D01*
Y29668D01*
X88720Y30324D01*
X90032D01*
X90688Y29668D01*
Y27700D01*
Y29012D02*
X92000Y30324D01*
Y31636D02*
Y32948D01*
Y32292D01*
X88064D01*
X88720Y31636D01*
X88064Y37539D02*
X88720Y36227D01*
X90032Y34916D01*
X91344D01*
X92000Y35572D01*
Y36883D01*
X91344Y37539D01*
X90688D01*
X90032Y36883D01*
Y34916D01*
X156424Y42656D02*
Y45280D01*
X155768Y45936D01*
X154456D01*
X153800Y45280D01*
Y42656D01*
X154456Y42000D01*
X155768D01*
X155112Y43312D02*
X156424Y42000D01*
X155768D02*
X156424Y42656D01*
X160360Y45936D02*
X157736D01*
Y43968D01*
X159048Y44624D01*
X159704D01*
X160360Y43968D01*
Y42656D01*
X159704Y42000D01*
X158392D01*
X157736Y42656D01*
X156424Y76356D02*
Y78980D01*
X155768Y79636D01*
X154456D01*
X153800Y78980D01*
Y76356D01*
X154456Y75700D01*
X155768D01*
X155112Y77012D02*
X156424Y75700D01*
X155768D02*
X156424Y76356D01*
X159704Y75700D02*
Y79636D01*
X157736Y77668D01*
X160360D01*
X122944Y67924D02*
X120320D01*
X119664Y67268D01*
Y65956D01*
X120320Y65300D01*
X122944D01*
X123600Y65956D01*
Y67268D01*
X122288Y66612D02*
X123600Y67924D01*
Y67268D02*
X122944Y67924D01*
X120320Y69236D02*
X119664Y69892D01*
Y71204D01*
X120320Y71860D01*
X120976D01*
X121632Y71204D01*
Y70548D01*
Y71204D01*
X122288Y71860D01*
X122944D01*
X123600Y71204D01*
Y69892D01*
X122944Y69236D01*
X132824Y41356D02*
Y43980D01*
X132168Y44636D01*
X130856D01*
X130200Y43980D01*
Y41356D01*
X130856Y40700D01*
X132168D01*
X131512Y42012D02*
X132824Y40700D01*
X132168D02*
X132824Y41356D01*
X136760Y44636D02*
X135448Y43980D01*
X134136Y42668D01*
Y41356D01*
X134792Y40700D01*
X136104D01*
X136760Y41356D01*
Y42012D01*
X136104Y42668D01*
X134136D01*
X141324Y76756D02*
Y79380D01*
X140668Y80036D01*
X139356D01*
X138700Y79380D01*
Y76756D01*
X139356Y76100D01*
X140668D01*
X140012Y77412D02*
X141324Y76100D01*
X140668D02*
X141324Y76756D01*
X145260Y76100D02*
X142636D01*
X145260Y78724D01*
Y79380D01*
X144604Y80036D01*
X143292D01*
X142636Y79380D01*
X135100Y5136D02*
Y1856D01*
X135756Y1200D01*
X137068D01*
X137724Y1856D01*
Y5136D01*
X139036Y1200D02*
X140348D01*
X139692D01*
Y5136D01*
X139036Y4480D01*
X37509Y71800D02*
X33573D01*
Y73768D01*
X34229Y74424D01*
X35541D01*
X36197Y73768D01*
Y71800D01*
Y73112D02*
X37509Y74424D01*
X34229Y75736D02*
X33573Y76392D01*
Y77704D01*
X34229Y78360D01*
X34885D01*
X35541Y77704D01*
X36197Y78360D01*
X36853D01*
X37509Y77704D01*
Y76392D01*
X36853Y75736D01*
X36197D01*
X35541Y76392D01*
X34885Y75736D01*
X34229D01*
X35541Y76392D02*
Y77704D01*
X74900Y74800D02*
X70964D01*
Y76768D01*
X71620Y77424D01*
X72932D01*
X73588Y76768D01*
Y74800D01*
Y76112D02*
X74900Y77424D01*
Y78736D02*
Y80048D01*
Y79392D01*
X70964D01*
X71620Y78736D01*
X53900Y59236D02*
Y55956D01*
X54556Y55300D01*
X55868D01*
X56524Y55956D01*
Y59236D01*
X60460Y55300D02*
X57836D01*
X60460Y57924D01*
Y58580D01*
X59804Y59236D01*
X58492D01*
X57836Y58580D01*
X97600Y53636D02*
Y50356D01*
X98256Y49700D01*
X99568D01*
X100224Y50356D01*
Y53636D01*
X101536Y52980D02*
X102192Y53636D01*
X103504D01*
X104160Y52980D01*
Y52324D01*
X103504Y51668D01*
X102848D01*
X103504D01*
X104160Y51012D01*
Y50356D01*
X103504Y49700D01*
X102192D01*
X101536Y50356D01*
X32764Y19500D02*
X36044D01*
X36700Y20156D01*
Y21468D01*
X36044Y22124D01*
X32764D01*
X36700Y25404D02*
X32764D01*
X34732Y23436D01*
Y26060D01*
X89900Y69200D02*
Y73136D01*
X91868D01*
X92524Y72480D01*
Y71168D01*
X91868Y70512D01*
X89900D01*
X91212D02*
X92524Y69200D01*
X96460Y73136D02*
X95148Y72480D01*
X93836Y71168D01*
Y69856D01*
X94492Y69200D01*
X95804D01*
X96460Y69856D01*
Y70512D01*
X95804Y71168D01*
X93836D01*
X140800Y27200D02*
X136864D01*
Y29168D01*
X137520Y29824D01*
X138832D01*
X139488Y29168D01*
Y27200D01*
Y28512D02*
X140800Y29824D01*
Y33760D02*
Y31136D01*
X138176Y33760D01*
X137520D01*
X136864Y33104D01*
Y31792D01*
X137520Y31136D01*
X80065Y63972D02*
X76129D01*
Y65939D01*
X76785Y66596D01*
X78097D01*
X78753Y65939D01*
Y63972D01*
Y65284D02*
X80065Y66596D01*
Y69875D02*
X76129D01*
X78097Y67907D01*
Y70531D01*
X138100Y19100D02*
X134164D01*
Y21068D01*
X134820Y21724D01*
X136132D01*
X136788Y21068D01*
Y19100D01*
Y20412D02*
X138100Y21724D01*
X134820Y23036D02*
X134164Y23692D01*
Y25004D01*
X134820Y25660D01*
X135476D01*
X136132Y25004D01*
Y24348D01*
Y25004D01*
X136788Y25660D01*
X137444D01*
X138100Y25004D01*
Y23692D01*
X137444Y23036D01*
X93600Y5000D02*
Y8936D01*
X95568D01*
X96224Y8280D01*
Y6968D01*
X95568Y6312D01*
X93600D01*
X94912D02*
X96224Y5000D01*
X100160Y8936D02*
X97536D01*
Y6968D01*
X98848Y7624D01*
X99504D01*
X100160Y6968D01*
Y5656D01*
X99504Y5000D01*
X98192D01*
X97536Y5656D01*
X185200Y67500D02*
X181264D01*
Y69468D01*
X181920Y70124D01*
X183232D01*
X183888Y69468D01*
Y67500D01*
Y68812D02*
X185200Y70124D01*
X184544Y71436D02*
X185200Y72092D01*
Y73404D01*
X184544Y74060D01*
X181920D01*
X181264Y73404D01*
Y72092D01*
X181920Y71436D01*
X182576D01*
X183232Y72092D01*
Y74060D01*
X191100Y73500D02*
X187164D01*
Y75468D01*
X187820Y76124D01*
X189132D01*
X189788Y75468D01*
Y73500D01*
Y74812D02*
X191100Y76124D01*
Y77436D02*
Y78748D01*
Y78092D01*
X187164D01*
X187820Y77436D01*
Y80716D02*
X187164Y81371D01*
Y82683D01*
X187820Y83339D01*
X190444D01*
X191100Y82683D01*
Y81371D01*
X190444Y80716D01*
X187820D01*
X16000Y8800D02*
Y12736D01*
X17968D01*
X18624Y12080D01*
Y10768D01*
X17968Y10112D01*
X16000D01*
X17312D02*
X18624Y8800D01*
X19936D02*
X21248D01*
X20592D01*
Y12736D01*
X19936Y12080D01*
X25839Y8800D02*
X23215D01*
X25839Y11424D01*
Y12080D01*
X25183Y12736D01*
X23871D01*
X23215Y12080D01*
X23500Y51000D02*
X19564D01*
Y52968D01*
X20220Y53624D01*
X21532D01*
X22188Y52968D01*
Y51000D01*
Y52312D02*
X23500Y53624D01*
Y57560D02*
Y54936D01*
X20876Y57560D01*
X20220D01*
X19564Y56904D01*
Y55592D01*
X20220Y54936D01*
Y58872D02*
X19564Y59527D01*
Y60839D01*
X20220Y61495D01*
X22844D01*
X23500Y60839D01*
Y59527D01*
X22844Y58872D01*
X20220D01*
X128120Y18681D02*
X127464Y18025D01*
Y16713D01*
X128120Y16058D01*
X130744D01*
X131400Y16713D01*
Y18025D01*
X130744Y18681D01*
X131400Y19993D02*
Y21305D01*
Y20649D01*
X127464D01*
X128120Y19993D01*
X166320Y51424D02*
X165664Y50768D01*
Y49456D01*
X166320Y48800D01*
X168944D01*
X169600Y49456D01*
Y50768D01*
X168944Y51424D01*
X166320Y52736D02*
X165664Y53392D01*
Y54704D01*
X166320Y55360D01*
X166976D01*
X167632Y54704D01*
Y54048D01*
Y54704D01*
X168288Y55360D01*
X168944D01*
X169600Y54704D01*
Y53392D01*
X168944Y52736D01*
X146024Y4480D02*
X145368Y5136D01*
X144056D01*
X143400Y4480D01*
Y1856D01*
X144056Y1200D01*
X145368D01*
X146024Y1856D01*
X149960Y1200D02*
X147336D01*
X149960Y3824D01*
Y4480D01*
X149304Y5136D01*
X147992D01*
X147336Y4480D01*
X31924Y38680D02*
X31268Y39336D01*
X29956D01*
X29300Y38680D01*
Y36056D01*
X29956Y35400D01*
X31268D01*
X31924Y36056D01*
X33236Y38680D02*
X33892Y39336D01*
X35204D01*
X35860Y38680D01*
Y38024D01*
X35204Y37368D01*
X35860Y36712D01*
Y36056D01*
X35204Y35400D01*
X33892D01*
X33236Y36056D01*
Y36712D01*
X33892Y37368D01*
X33236Y38024D01*
Y38680D01*
X33892Y37368D02*
X35204D01*
X30624Y6180D02*
X29968Y6836D01*
X28656D01*
X28000Y6180D01*
Y3556D01*
X28656Y2900D01*
X29968D01*
X30624Y3556D01*
X31936Y6836D02*
X34560D01*
Y6180D01*
X31936Y3556D01*
Y2900D01*
X113124Y28280D02*
X112468Y28936D01*
X111156D01*
X110500Y28280D01*
Y25656D01*
X111156Y25000D01*
X112468D01*
X113124Y25656D01*
X117060Y28936D02*
X115748Y28280D01*
X114436Y26968D01*
Y25656D01*
X115092Y25000D01*
X116404D01*
X117060Y25656D01*
Y26312D01*
X116404Y26968D01*
X114436D01*
X98420Y31324D02*
X97764Y30668D01*
Y29356D01*
X98420Y28700D01*
X101044D01*
X101700Y29356D01*
Y30668D01*
X101044Y31324D01*
X97764Y35260D02*
Y32636D01*
X99732D01*
X99076Y33948D01*
Y34604D01*
X99732Y35260D01*
X101044D01*
X101700Y34604D01*
Y33292D01*
X101044Y32636D01*
X122420Y33724D02*
X121764Y33068D01*
Y31756D01*
X122420Y31100D01*
X125044D01*
X125700Y31756D01*
Y33068D01*
X125044Y33724D01*
X125700Y37004D02*
X121764D01*
X123732Y35036D01*
Y37660D01*
X197400Y58200D02*
X193464D01*
Y60168D01*
X194120Y60824D01*
X195432D01*
X196088Y60168D01*
Y58200D01*
X194120Y62136D02*
X193464Y62792D01*
Y64104D01*
X194120Y64760D01*
X194776D01*
X195432Y64104D01*
Y63448D01*
Y64104D01*
X196088Y64760D01*
X196744D01*
X197400Y64104D01*
Y62792D01*
X196744Y62136D01*
X197200Y9300D02*
X193264D01*
Y11268D01*
X193920Y11924D01*
X195232D01*
X195888Y11268D01*
Y9300D01*
X197200Y13236D02*
Y14548D01*
Y13892D01*
X193264D01*
X193920Y13236D01*
X80600Y74400D02*
X76664D01*
Y76368D01*
X77320Y77024D01*
X78632D01*
X79288Y76368D01*
Y74400D01*
Y75712D02*
X80600Y77024D01*
X76664Y78336D02*
Y80960D01*
X77320D01*
X79944Y78336D01*
X80600D01*
X16000Y2900D02*
Y6836D01*
X17968D01*
X18624Y6180D01*
Y4868D01*
X17968Y4212D01*
X16000D01*
X17312D02*
X18624Y2900D01*
X19936D02*
X21248D01*
X20592D01*
Y6836D01*
X19936Y6180D01*
X23215D02*
X23871Y6836D01*
X25183D01*
X25839Y6180D01*
Y5524D01*
X25183Y4868D01*
X24527D01*
X25183D01*
X25839Y4212D01*
Y3556D01*
X25183Y2900D01*
X23871D01*
X23215Y3556D01*
D42*
X7650Y36077D02*
G03*
X7650Y36077I-450J0D01*
G01*
D43*
X142400Y37100D02*
X147400D01*
X103195Y32205D02*
X108195D01*
X93029Y62200D02*
Y67200D01*
D44*
X157328Y47540D02*
X161828D01*
X157328Y59040D02*
X161828D01*
Y47540D02*
Y49540D01*
X152828Y53040D02*
Y53540D01*
X161828Y57040D02*
Y59040D01*
X157328Y62328D02*
X161828D01*
X157328Y73828D02*
X161828D01*
Y62328D02*
Y64328D01*
X152828Y67828D02*
Y68328D01*
X161828Y71828D02*
Y73828D01*
M02*
