G04 Layer_Color=32896*
%FSLAX25Y25*%
%MOIN*%
G70*
G01*
G75*
%ADD41C,0.00787*%
D41*
X10136Y19200D02*
X6200D01*
Y21168D01*
X6856Y21824D01*
X9480D01*
X10136Y21168D01*
Y19200D01*
Y23136D02*
Y25760D01*
Y24448D01*
X6200D01*
Y27071D02*
X10136D01*
X8824Y28383D01*
X10136Y29695D01*
X6200D01*
Y31007D02*
Y32319D01*
Y31663D01*
X10136D01*
X9480Y31007D01*
X10136Y34287D02*
Y36911D01*
X9480D01*
X6856Y34287D01*
X6200D01*
X10136Y40847D02*
Y38223D01*
X6200D01*
Y40847D01*
X8168Y38223D02*
Y39535D01*
X9480Y42158D02*
X10136Y42814D01*
Y44126D01*
X9480Y44782D01*
X6856D01*
X6200Y44126D01*
Y42814D01*
X6856Y42158D01*
X9480D01*
Y46094D02*
X10136Y46750D01*
Y48062D01*
X9480Y48718D01*
X6856D01*
X6200Y48062D01*
Y46750D01*
X6856Y46094D01*
X9480D01*
Y50030D02*
X10136Y50686D01*
Y51998D01*
X9480Y52654D01*
X6856D01*
X6200Y51998D01*
Y50686D01*
X6856Y50030D01*
X9480D01*
Y53966D02*
X10136Y54622D01*
Y55934D01*
X9480Y56590D01*
X6856D01*
X6200Y55934D01*
Y54622D01*
X6856Y53966D01*
X9480D01*
X6200Y61837D02*
X10136D01*
Y63805D01*
X9480Y64461D01*
X8168D01*
X7512Y63805D01*
Y61837D01*
Y63149D02*
X6200Y64461D01*
X10136Y68397D02*
Y65773D01*
X6200D01*
Y68397D01*
X8168Y65773D02*
Y67085D01*
X10136Y69709D02*
X7512D01*
X6200Y71021D01*
X7512Y72333D01*
X10136D01*
X6200Y73644D02*
Y74956D01*
Y74300D01*
X10136D01*
X9480Y73644D01*
X187300Y12500D02*
X191236D01*
Y14468D01*
X190580Y15124D01*
X189268D01*
X188612Y14468D01*
Y12500D01*
X187300Y19060D02*
Y16436D01*
X189924Y19060D01*
X190580D01*
X191236Y18404D01*
Y17092D01*
X190580Y16436D01*
M02*
