G04 Layer_Color=8421504*
%FSLAX25Y25*%
%MOIN*%
G70*
G01*
G75*
%ADD10R,0.04000X0.04000*%
%ADD11R,0.02756X0.03543*%
%ADD12R,0.04000X0.04000*%
%ADD13R,0.05000X0.03600*%
%ADD14R,0.03600X0.03600*%
%ADD15R,0.03543X0.03150*%
%ADD16R,0.01181X0.02953*%
%ADD17R,0.02756X0.03543*%
%ADD18R,0.06102X0.02362*%
%ADD19R,0.05000X0.05000*%
%ADD20R,0.03543X0.02756*%
%ADD21R,0.00984X0.01083*%
%ADD22R,0.01083X0.00984*%
%ADD23R,0.01575X0.02362*%
%ADD24R,0.07087X0.01181*%
%ADD25R,0.06299X0.11024*%
%ADD26R,0.05000X0.05000*%
%ADD27R,0.02362X0.01575*%
%ADD28R,0.06299X0.13780*%
%ADD29R,0.13780X0.06299*%
%ADD30R,0.06299X0.07874*%
%ADD31R,0.02756X0.06299*%
D10*
X40757Y58100D02*
D03*
X46757D02*
D03*
X90100Y6900D02*
D03*
X84100D02*
D03*
X177399Y77100D02*
D03*
X171399D02*
D03*
X189200D02*
D03*
X183200D02*
D03*
X12119Y10740D02*
D03*
X6119D02*
D03*
X12119Y4939D02*
D03*
X6119D02*
D03*
D11*
X34200Y58328D02*
D03*
Y53210D02*
D03*
X145408Y21159D02*
D03*
Y26277D02*
D03*
X83328Y63972D02*
D03*
Y69090D02*
D03*
D12*
X84200Y24300D02*
D03*
Y18300D02*
D03*
X114301Y65569D02*
D03*
Y71569D02*
D03*
Y59768D02*
D03*
Y53768D02*
D03*
X108500Y59768D02*
D03*
Y53768D02*
D03*
Y65569D02*
D03*
Y71569D02*
D03*
X90001Y24300D02*
D03*
Y18300D02*
D03*
X83928Y74662D02*
D03*
Y80662D02*
D03*
D13*
X161328Y53240D02*
D03*
Y68028D02*
D03*
D14*
X153328Y49540D02*
D03*
Y57040D02*
D03*
Y64328D02*
D03*
Y71828D02*
D03*
D15*
X126863Y71818D02*
D03*
Y64338D02*
D03*
X134737Y68078D02*
D03*
X126863Y57030D02*
D03*
Y49549D02*
D03*
X134737Y53290D02*
D03*
X140081Y57030D02*
D03*
Y49549D02*
D03*
X147955Y53290D02*
D03*
X140081Y71818D02*
D03*
Y64338D02*
D03*
X147955Y68078D02*
D03*
X104966Y18840D02*
D03*
Y11360D02*
D03*
X112840Y15100D02*
D03*
D16*
X135634Y15580D02*
D03*
X138193Y8100D02*
D03*
X140752Y15580D02*
D03*
X135634Y8100D02*
D03*
X140752D02*
D03*
D17*
X24591Y4862D02*
D03*
X30103D02*
D03*
X24591Y10663D02*
D03*
X30103D02*
D03*
D18*
X7170Y31877D02*
D03*
Y26877D02*
D03*
Y21877D02*
D03*
Y16877D02*
D03*
X28430D02*
D03*
Y21877D02*
D03*
Y26877D02*
D03*
Y31877D02*
D03*
D19*
X105695Y28205D02*
D03*
Y36205D02*
D03*
D20*
X129433Y13513D02*
D03*
Y8002D02*
D03*
X117797Y37327D02*
D03*
Y31815D02*
D03*
X111996D02*
D03*
Y37327D02*
D03*
X145581Y8002D02*
D03*
Y13513D02*
D03*
D21*
X101768Y41047D02*
D03*
X99799D02*
D03*
Y46953D02*
D03*
X101768D02*
D03*
D22*
X97830Y43016D02*
D03*
Y44984D02*
D03*
Y46953D02*
D03*
X103736Y44984D02*
D03*
Y43016D02*
D03*
Y41047D02*
D03*
Y46953D02*
D03*
X97830Y41047D02*
D03*
D23*
X163402Y43800D02*
D03*
X167732D02*
D03*
D24*
X71434Y6139D02*
D03*
Y8698D02*
D03*
Y11258D02*
D03*
Y13817D02*
D03*
Y16376D02*
D03*
Y18935D02*
D03*
Y21494D02*
D03*
Y24053D02*
D03*
Y26612D02*
D03*
Y29171D02*
D03*
Y31730D02*
D03*
Y34289D02*
D03*
Y36848D02*
D03*
Y39407D02*
D03*
Y41966D02*
D03*
Y44525D02*
D03*
Y47084D02*
D03*
Y49643D02*
D03*
Y52202D02*
D03*
X42300Y6139D02*
D03*
Y8698D02*
D03*
Y11258D02*
D03*
Y13817D02*
D03*
Y16376D02*
D03*
Y18935D02*
D03*
Y21494D02*
D03*
Y24053D02*
D03*
Y26612D02*
D03*
Y29171D02*
D03*
Y31730D02*
D03*
Y34289D02*
D03*
Y36848D02*
D03*
Y39407D02*
D03*
Y41966D02*
D03*
Y44525D02*
D03*
Y47084D02*
D03*
Y49643D02*
D03*
Y52202D02*
D03*
D25*
X44870Y77151D02*
D03*
X66130D02*
D03*
D26*
X97029Y64700D02*
D03*
X89029D02*
D03*
D27*
X141026Y24506D02*
D03*
Y20175D02*
D03*
D28*
X7269Y75773D02*
D03*
X28528D02*
D03*
D29*
X11009Y62830D02*
D03*
Y41570D02*
D03*
D30*
X153543Y33913D02*
D03*
X187795D02*
D03*
Y12259D02*
D03*
X153543D02*
D03*
D31*
X176969Y34700D02*
D03*
X173819D02*
D03*
X170669D02*
D03*
X167520D02*
D03*
X164370D02*
D03*
M02*
