G04 Layer_Physical_Order=2*
G04 Layer_Color=16711680*
%FSLAX25Y25*%
%MOIN*%
G70*
G01*
G75*
%ADD32C,0.01000*%
%ADD33C,0.01969*%
%ADD34C,0.08787*%
%ADD35C,0.06000*%
%ADD36R,0.05906X0.05906*%
%ADD37C,0.05906*%
%ADD38C,0.01600*%
%ADD39C,0.05000*%
G36*
X198996Y1003D02*
X144627D01*
X144472Y1369D01*
X144460Y1503D01*
X170326Y27370D01*
X171002Y27504D01*
X171598Y27902D01*
X171996Y28498D01*
X172135Y29200D01*
X171996Y29902D01*
X171598Y30498D01*
X171002Y30896D01*
X170300Y31035D01*
X169598Y30896D01*
X169002Y30498D01*
X168604Y29902D01*
X168470Y29226D01*
X142956Y3713D01*
X70407D01*
X52513Y21607D01*
Y35225D01*
X52896Y35798D01*
X53035Y36500D01*
X52896Y37202D01*
X52498Y37798D01*
X51902Y38196D01*
X51200Y38335D01*
X50713Y38238D01*
X50213Y38561D01*
Y49043D01*
X50114Y49538D01*
X50135Y49643D01*
X49996Y50346D01*
X49598Y50941D01*
X49002Y51339D01*
X48300Y51479D01*
X47598Y51339D01*
X47002Y50941D01*
X46604Y50346D01*
X46465Y49643D01*
X46604Y48941D01*
X47002Y48346D01*
X47587Y47955D01*
Y20835D01*
X47687Y20333D01*
X47972Y19907D01*
X50534Y17345D01*
X50304Y17002D01*
X50165Y16300D01*
X50304Y15598D01*
X50702Y15002D01*
X51298Y14604D01*
X52000Y14465D01*
X52702Y14604D01*
X53298Y15002D01*
X53696Y15598D01*
X53763Y15936D01*
X54305Y16101D01*
X58527Y11879D01*
X58208Y11491D01*
X57902Y11696D01*
X57200Y11835D01*
X56498Y11696D01*
X55902Y11298D01*
X55504Y10702D01*
X55370Y10026D01*
X51595Y6252D01*
X18113D01*
Y30602D01*
X18496Y31175D01*
X18635Y31877D01*
X18496Y32580D01*
X18098Y33175D01*
X17502Y33573D01*
X16800Y33713D01*
X16098Y33573D01*
X15502Y33175D01*
X15104Y32580D01*
X14965Y31877D01*
X15104Y31175D01*
X15487Y30602D01*
Y6215D01*
X15104Y5641D01*
X14965Y4939D01*
X15104Y4237D01*
X15502Y3641D01*
X16098Y3244D01*
X16800Y3104D01*
X17502Y3244D01*
X18075Y3627D01*
X52139D01*
X52641Y3726D01*
X53067Y4011D01*
X55005Y5949D01*
X55483Y5804D01*
X55504Y5698D01*
X55902Y5102D01*
X56498Y4704D01*
X56700Y4664D01*
Y6400D01*
X57200D01*
Y6900D01*
X58936D01*
X58896Y7102D01*
X58498Y7698D01*
X58196Y7899D01*
Y8501D01*
X58498Y8702D01*
X58896Y9298D01*
X59035Y10000D01*
X58896Y10702D01*
X58691Y11008D01*
X59079Y11327D01*
X68903Y1503D01*
X68891Y1369D01*
X68736Y1003D01*
X1003D01*
Y8907D01*
X1503Y9174D01*
X1698Y9045D01*
X2400Y8905D01*
X3102Y9045D01*
X3698Y9442D01*
X4096Y10038D01*
X4235Y10740D01*
X4096Y11443D01*
X3713Y12016D01*
Y25525D01*
X4096Y26098D01*
X4235Y26800D01*
X4096Y27502D01*
X3698Y28098D01*
X3102Y28496D01*
X2400Y28635D01*
X1698Y28496D01*
X1503Y28366D01*
X1003Y28633D01*
Y48218D01*
X1503Y48468D01*
X1898Y48204D01*
X2100Y48164D01*
Y49900D01*
Y51636D01*
X1898Y51596D01*
X1503Y51332D01*
X1003Y51582D01*
Y86997D01*
X198996D01*
Y1003D01*
D02*
G37*
%LPC*%
G36*
X20300Y25100D02*
X19064D01*
X19104Y24898D01*
X19502Y24302D01*
X20098Y23904D01*
X20300Y23864D01*
Y25100D01*
D02*
G37*
G36*
X22536D02*
X21300D01*
Y23864D01*
X21502Y23904D01*
X22098Y24302D01*
X22496Y24898D01*
X22536Y25100D01*
D02*
G37*
G36*
X111496Y23600D02*
X110260D01*
X110300Y23398D01*
X110698Y22802D01*
X111293Y22404D01*
X111496Y22364D01*
Y23600D01*
D02*
G37*
G36*
X113732D02*
X112496D01*
Y22364D01*
X112698Y22404D01*
X113293Y22802D01*
X113691Y23398D01*
X113732Y23600D01*
D02*
G37*
G36*
X149704Y25800D02*
X148468D01*
X148508Y25598D01*
X148906Y25002D01*
X149502Y24604D01*
X149704Y24564D01*
Y25800D01*
D02*
G37*
G36*
X112496Y25836D02*
Y24600D01*
X113732D01*
X113691Y24802D01*
X113293Y25398D01*
X112698Y25796D01*
X112496Y25836D01*
D02*
G37*
G36*
X195100Y26100D02*
X193864D01*
X193904Y25898D01*
X194302Y25302D01*
X194898Y24904D01*
X195100Y24864D01*
Y26100D01*
D02*
G37*
G36*
X151940Y25800D02*
X150704D01*
Y24564D01*
X150906Y24604D01*
X151502Y25002D01*
X151900Y25598D01*
X151940Y25800D01*
D02*
G37*
G36*
X111496Y25836D02*
X111293Y25796D01*
X110698Y25398D01*
X110300Y24802D01*
X110260Y24600D01*
X111496D01*
Y25836D01*
D02*
G37*
G36*
X196100Y21536D02*
Y20300D01*
X197336D01*
X197296Y20502D01*
X196898Y21098D01*
X196302Y21496D01*
X196100Y21536D01*
D02*
G37*
G36*
X20300Y20736D02*
X20098Y20696D01*
X19502Y20298D01*
X19104Y19702D01*
X19064Y19500D01*
X20300D01*
Y20736D01*
D02*
G37*
G36*
X21300D02*
Y19500D01*
X22536D01*
X22496Y19702D01*
X22098Y20298D01*
X21502Y20696D01*
X21300Y20736D01*
D02*
G37*
G36*
X195100Y19300D02*
X193864D01*
X193904Y19098D01*
X194302Y18502D01*
X194898Y18104D01*
X195100Y18064D01*
Y19300D01*
D02*
G37*
G36*
X197336D02*
X196100D01*
Y18064D01*
X196302Y18104D01*
X196898Y18502D01*
X197296Y19098D01*
X197336Y19300D01*
D02*
G37*
G36*
X149704Y21536D02*
X149502Y21496D01*
X148906Y21098D01*
X148508Y20502D01*
X148468Y20300D01*
X149704D01*
Y21536D01*
D02*
G37*
G36*
X170800D02*
Y20300D01*
X172036D01*
X171996Y20502D01*
X171598Y21098D01*
X171002Y21496D01*
X170800Y21536D01*
D02*
G37*
G36*
X195100D02*
X194898Y21496D01*
X194302Y21098D01*
X193904Y20502D01*
X193864Y20300D01*
X195100D01*
Y21536D01*
D02*
G37*
G36*
X150704D02*
Y20300D01*
X151940D01*
X151900Y20502D01*
X151502Y21098D01*
X150906Y21496D01*
X150704Y21536D01*
D02*
G37*
G36*
X169800D02*
X169598Y21496D01*
X169002Y21098D01*
X168604Y20502D01*
X168564Y20300D01*
X169800D01*
Y21536D01*
D02*
G37*
G36*
X35736Y36200D02*
X34500D01*
Y34964D01*
X34702Y35004D01*
X35298Y35402D01*
X35696Y35998D01*
X35736Y36200D01*
D02*
G37*
G36*
X98300Y37036D02*
X98098Y36996D01*
X97502Y36598D01*
X97104Y36002D01*
X97064Y35800D01*
X98300D01*
Y37036D01*
D02*
G37*
G36*
X100536Y34800D02*
X99300D01*
Y33564D01*
X99502Y33604D01*
X100098Y34002D01*
X100496Y34598D01*
X100536Y34800D01*
D02*
G37*
G36*
X33500Y36200D02*
X32264D01*
X32304Y35998D01*
X32702Y35402D01*
X33298Y35004D01*
X33500Y34964D01*
Y36200D01*
D02*
G37*
G36*
X99300Y37036D02*
Y35800D01*
X100536D01*
X100496Y36002D01*
X100098Y36598D01*
X99502Y36996D01*
X99300Y37036D01*
D02*
G37*
G36*
X33500Y38436D02*
X33298Y38396D01*
X32702Y37998D01*
X32304Y37402D01*
X32264Y37200D01*
X33500D01*
Y38436D01*
D02*
G37*
G36*
X34500D02*
Y37200D01*
X35736D01*
X35696Y37402D01*
X35298Y37998D01*
X34702Y38396D01*
X34500Y38436D01*
D02*
G37*
G36*
X126363Y37400D02*
X125127D01*
X125167Y37198D01*
X125565Y36602D01*
X126161Y36204D01*
X126363Y36164D01*
Y37400D01*
D02*
G37*
G36*
X128599D02*
X127363D01*
Y36164D01*
X127565Y36204D01*
X128161Y36602D01*
X128559Y37198D01*
X128599Y37400D01*
D02*
G37*
G36*
X98300Y34800D02*
X97064D01*
X97104Y34598D01*
X97502Y34002D01*
X98098Y33604D01*
X98300Y33564D01*
Y34800D01*
D02*
G37*
G36*
X61459Y27000D02*
X60224D01*
Y25764D01*
X60426Y25804D01*
X61021Y26202D01*
X61419Y26798D01*
X61459Y27000D01*
D02*
G37*
G36*
X20300Y27336D02*
X20098Y27296D01*
X19502Y26898D01*
X19104Y26302D01*
X19064Y26100D01*
X20300D01*
Y27336D01*
D02*
G37*
G36*
X197336Y26100D02*
X196100D01*
Y24864D01*
X196302Y24904D01*
X196898Y25302D01*
X197296Y25898D01*
X197336Y26100D01*
D02*
G37*
G36*
X59224Y27000D02*
X57988D01*
X58028Y26798D01*
X58426Y26202D01*
X59021Y25804D01*
X59224Y25764D01*
Y27000D01*
D02*
G37*
G36*
X21300Y27336D02*
Y26100D01*
X22536D01*
X22496Y26302D01*
X22098Y26898D01*
X21502Y27296D01*
X21300Y27336D01*
D02*
G37*
G36*
X59224Y29236D02*
X59021Y29196D01*
X58426Y28798D01*
X58028Y28202D01*
X57988Y28000D01*
X59224D01*
Y29236D01*
D02*
G37*
G36*
X60224D02*
Y28000D01*
X61459D01*
X61419Y28202D01*
X61021Y28798D01*
X60426Y29196D01*
X60224Y29236D01*
D02*
G37*
G36*
X195100Y28336D02*
X194898Y28296D01*
X194302Y27898D01*
X193904Y27302D01*
X193864Y27100D01*
X195100D01*
Y28336D01*
D02*
G37*
G36*
X196100D02*
Y27100D01*
X197336D01*
X197296Y27302D01*
X196898Y27898D01*
X196302Y28296D01*
X196100Y28336D01*
D02*
G37*
G36*
X172036Y19300D02*
X170800D01*
Y18064D01*
X171002Y18104D01*
X171598Y18502D01*
X171996Y19098D01*
X172036Y19300D01*
D02*
G37*
G36*
X139936Y11500D02*
X138700D01*
Y10264D01*
X138902Y10304D01*
X139498Y10702D01*
X139896Y11298D01*
X139936Y11500D01*
D02*
G37*
G36*
X98400Y12000D02*
X97164D01*
X97204Y11798D01*
X97602Y11202D01*
X98198Y10804D01*
X98400Y10764D01*
Y12000D01*
D02*
G37*
G36*
X93536Y9800D02*
X92300D01*
Y8564D01*
X92502Y8604D01*
X93098Y9002D01*
X93496Y9598D01*
X93536Y9800D01*
D02*
G37*
G36*
X137700Y11500D02*
X136464D01*
X136504Y11298D01*
X136902Y10702D01*
X137498Y10304D01*
X137700Y10264D01*
Y11500D01*
D02*
G37*
G36*
X100636Y12000D02*
X99400D01*
Y10764D01*
X99602Y10804D01*
X100198Y11202D01*
X100596Y11798D01*
X100636Y12000D01*
D02*
G37*
G36*
X137700Y13736D02*
X137498Y13696D01*
X136902Y13298D01*
X136504Y12702D01*
X136464Y12500D01*
X137700D01*
Y13736D01*
D02*
G37*
G36*
X138700D02*
Y12500D01*
X139936D01*
X139896Y12702D01*
X139498Y13298D01*
X138902Y13696D01*
X138700Y13736D01*
D02*
G37*
G36*
X119300Y12000D02*
X118064D01*
X118104Y11798D01*
X118502Y11202D01*
X119098Y10804D01*
X119300Y10764D01*
Y12000D01*
D02*
G37*
G36*
X121536D02*
X120300D01*
Y10764D01*
X120502Y10804D01*
X121098Y11202D01*
X121496Y11798D01*
X121536Y12000D01*
D02*
G37*
G36*
X137500Y26341D02*
X136798Y26201D01*
X136202Y25803D01*
X135804Y25208D01*
X135665Y24506D01*
X135695Y24352D01*
X118796Y7452D01*
X79775D01*
X79202Y7835D01*
X78500Y7975D01*
X77798Y7835D01*
X77202Y7437D01*
X76804Y6842D01*
X76665Y6139D01*
X76804Y5437D01*
X77202Y4842D01*
X77798Y4444D01*
X78500Y4304D01*
X79202Y4444D01*
X79775Y4827D01*
X119339D01*
X119842Y4927D01*
X120267Y5211D01*
X137783Y22727D01*
X138202Y22810D01*
X138798Y23208D01*
X139196Y23803D01*
X139335Y24506D01*
X139196Y25208D01*
X138798Y25803D01*
X138202Y26201D01*
X137500Y26341D01*
D02*
G37*
G36*
X124600Y5700D02*
X123364D01*
X123404Y5498D01*
X123802Y4902D01*
X124398Y4504D01*
X124600Y4464D01*
Y5700D01*
D02*
G37*
G36*
X126836D02*
X125600D01*
Y4464D01*
X125802Y4504D01*
X126398Y4902D01*
X126796Y5498D01*
X126836Y5700D01*
D02*
G37*
G36*
X169700Y3900D02*
X168464D01*
X168504Y3698D01*
X168902Y3102D01*
X169498Y2704D01*
X169700Y2664D01*
Y3900D01*
D02*
G37*
G36*
X171936D02*
X170700D01*
Y2664D01*
X170902Y2704D01*
X171498Y3102D01*
X171896Y3698D01*
X171936Y3900D01*
D02*
G37*
G36*
X58936Y5900D02*
X57700D01*
Y4664D01*
X57902Y4704D01*
X58498Y5102D01*
X58896Y5698D01*
X58936Y5900D01*
D02*
G37*
G36*
X124600Y7936D02*
X124398Y7896D01*
X123802Y7498D01*
X123404Y6902D01*
X123364Y6700D01*
X124600D01*
Y7936D01*
D02*
G37*
G36*
X125600D02*
Y6700D01*
X126836D01*
X126796Y6902D01*
X126398Y7498D01*
X125802Y7896D01*
X125600Y7936D01*
D02*
G37*
G36*
X169700Y6136D02*
X169498Y6096D01*
X168902Y5698D01*
X168504Y5102D01*
X168464Y4900D01*
X169700D01*
Y6136D01*
D02*
G37*
G36*
X170700D02*
Y4900D01*
X171936D01*
X171896Y5102D01*
X171498Y5698D01*
X170902Y6096D01*
X170700Y6136D01*
D02*
G37*
G36*
X20300Y18500D02*
X19064D01*
X19104Y18298D01*
X19502Y17702D01*
X20098Y17304D01*
X20300Y17264D01*
Y18500D01*
D02*
G37*
G36*
X22536D02*
X21300D01*
Y17264D01*
X21502Y17304D01*
X22098Y17702D01*
X22496Y18298D01*
X22536Y18500D01*
D02*
G37*
G36*
X46900Y18111D02*
X46698Y18071D01*
X46102Y17673D01*
X45704Y17078D01*
X45664Y16876D01*
X46900D01*
Y18111D01*
D02*
G37*
G36*
X47900D02*
Y16876D01*
X49136D01*
X49096Y17078D01*
X48698Y17673D01*
X48102Y18071D01*
X47900Y18111D01*
D02*
G37*
G36*
X11900Y18636D02*
X11698Y18596D01*
X11102Y18198D01*
X10704Y17602D01*
X10664Y17400D01*
X11900D01*
Y18636D01*
D02*
G37*
G36*
X151940Y19300D02*
X150704D01*
Y18064D01*
X150906Y18104D01*
X151502Y18502D01*
X151900Y19098D01*
X151940Y19300D01*
D02*
G37*
G36*
X169800D02*
X168564D01*
X168604Y19098D01*
X169002Y18502D01*
X169598Y18104D01*
X169800Y18064D01*
Y19300D01*
D02*
G37*
G36*
X12900Y18636D02*
Y17400D01*
X14136D01*
X14096Y17602D01*
X13698Y18198D01*
X13102Y18596D01*
X12900Y18636D01*
D02*
G37*
G36*
X149704Y19300D02*
X148468D01*
X148508Y19098D01*
X148906Y18502D01*
X149502Y18104D01*
X149704Y18064D01*
Y19300D01*
D02*
G37*
G36*
X14136Y16400D02*
X12900D01*
Y15164D01*
X13102Y15204D01*
X13698Y15602D01*
X14096Y16198D01*
X14136Y16400D01*
D02*
G37*
G36*
X119300Y14236D02*
X119098Y14196D01*
X118502Y13798D01*
X118104Y13202D01*
X118064Y13000D01*
X119300D01*
Y14236D01*
D02*
G37*
G36*
X120300D02*
Y13000D01*
X121536D01*
X121496Y13202D01*
X121098Y13798D01*
X120502Y14196D01*
X120300Y14236D01*
D02*
G37*
G36*
X98400D02*
X98198Y14196D01*
X97602Y13798D01*
X97204Y13202D01*
X97164Y13000D01*
X98400D01*
Y14236D01*
D02*
G37*
G36*
X99400D02*
Y13000D01*
X100636D01*
X100596Y13202D01*
X100198Y13798D01*
X99602Y14196D01*
X99400Y14236D01*
D02*
G37*
G36*
X62200Y14400D02*
X60964D01*
X61004Y14198D01*
X61402Y13602D01*
X61998Y13204D01*
X62200Y13164D01*
Y14400D01*
D02*
G37*
G36*
X49136Y15876D02*
X47900D01*
Y14640D01*
X48102Y14680D01*
X48698Y15078D01*
X49096Y15673D01*
X49136Y15876D01*
D02*
G37*
G36*
X11900Y16400D02*
X10664D01*
X10704Y16198D01*
X11102Y15602D01*
X11698Y15204D01*
X11900Y15164D01*
Y16400D01*
D02*
G37*
G36*
X64436Y14400D02*
X63200D01*
Y13164D01*
X63402Y13204D01*
X63998Y13602D01*
X64396Y14198D01*
X64436Y14400D01*
D02*
G37*
G36*
X46900Y15876D02*
X45664D01*
X45704Y15673D01*
X46102Y15078D01*
X46698Y14680D01*
X46900Y14640D01*
Y15876D01*
D02*
G37*
G36*
X17484Y82700D02*
X16248D01*
Y81464D01*
X16450Y81504D01*
X17046Y81902D01*
X17444Y82498D01*
X17484Y82700D01*
D02*
G37*
G36*
X56300D02*
X55064D01*
X55104Y82498D01*
X55502Y81902D01*
X56098Y81504D01*
X56300Y81464D01*
Y82700D01*
D02*
G37*
G36*
X15248D02*
X14012D01*
X14052Y82498D01*
X14450Y81902D01*
X15046Y81504D01*
X15248Y81464D01*
Y82700D01*
D02*
G37*
G36*
X133858Y84635D02*
X132814Y84497D01*
X131841Y84094D01*
X131005Y83453D01*
X130364Y82617D01*
X129961Y81644D01*
X129824Y80600D01*
X129961Y79556D01*
X130364Y78583D01*
X131005Y77747D01*
X131841Y77106D01*
X132814Y76703D01*
X133858Y76565D01*
X134903Y76703D01*
X135875Y77106D01*
X136711Y77747D01*
X137352Y78583D01*
X137755Y79556D01*
X137893Y80600D01*
X137755Y81644D01*
X137352Y82617D01*
X136711Y83453D01*
X135875Y84094D01*
X134903Y84497D01*
X133858Y84635D01*
D02*
G37*
G36*
X149606D02*
X148562Y84497D01*
X147589Y84094D01*
X146754Y83453D01*
X146112Y82617D01*
X145709Y81644D01*
X145572Y80600D01*
X145709Y79556D01*
X146112Y78583D01*
X146754Y77747D01*
X147589Y77106D01*
X148562Y76703D01*
X149606Y76565D01*
X150651Y76703D01*
X151624Y77106D01*
X152459Y77747D01*
X153100Y78583D01*
X153503Y79556D01*
X153641Y80600D01*
X153503Y81644D01*
X153100Y82617D01*
X152459Y83453D01*
X151624Y84094D01*
X150651Y84497D01*
X149606Y84635D01*
D02*
G37*
G36*
X93700Y82700D02*
X92464D01*
X92504Y82498D01*
X92902Y81902D01*
X93498Y81504D01*
X93700Y81464D01*
Y82700D01*
D02*
G37*
G36*
X95936D02*
X94700D01*
Y81464D01*
X94902Y81504D01*
X95498Y81902D01*
X95896Y82498D01*
X95936Y82700D01*
D02*
G37*
G36*
X78736D02*
X77500D01*
Y81464D01*
X77702Y81504D01*
X78298Y81902D01*
X78696Y82498D01*
X78736Y82700D01*
D02*
G37*
G36*
X58536D02*
X57300D01*
Y81464D01*
X57502Y81504D01*
X58098Y81902D01*
X58496Y82498D01*
X58536Y82700D01*
D02*
G37*
G36*
X76500D02*
X75264D01*
X75304Y82498D01*
X75702Y81902D01*
X76298Y81504D01*
X76500Y81464D01*
Y82700D01*
D02*
G37*
G36*
X29500Y66436D02*
Y65200D01*
X30736D01*
X30696Y65402D01*
X30298Y65998D01*
X29702Y66396D01*
X29500Y66436D01*
D02*
G37*
G36*
X44900D02*
X44698Y66396D01*
X44102Y65998D01*
X43704Y65402D01*
X43664Y65200D01*
X44900D01*
Y66436D01*
D02*
G37*
G36*
X28500D02*
X28298Y66396D01*
X27702Y65998D01*
X27304Y65402D01*
X27264Y65200D01*
X28500D01*
Y66436D01*
D02*
G37*
G36*
X47136Y64200D02*
X45900D01*
Y62964D01*
X46102Y63004D01*
X46698Y63402D01*
X47096Y63998D01*
X47136Y64200D01*
D02*
G37*
G36*
X177000Y73115D02*
X175961Y72978D01*
X174993Y72577D01*
X174161Y71939D01*
X173523Y71107D01*
X173122Y70139D01*
X172985Y69100D01*
X173122Y68061D01*
X173523Y67093D01*
X174161Y66261D01*
X174993Y65623D01*
X175961Y65222D01*
X177000Y65085D01*
X178039Y65222D01*
X179007Y65623D01*
X179839Y66261D01*
X180477Y67093D01*
X180878Y68061D01*
X181015Y69100D01*
X180878Y70139D01*
X180477Y71107D01*
X179839Y71939D01*
X179007Y72577D01*
X178039Y72978D01*
X177000Y73115D01*
D02*
G37*
G36*
X51700Y69164D02*
Y66200D01*
X54664D01*
X54610Y66614D01*
X54257Y67465D01*
X53696Y68196D01*
X52965Y68757D01*
X52114Y69110D01*
X51700Y69164D01*
D02*
G37*
G36*
X170800Y71336D02*
Y70100D01*
X172036D01*
X171996Y70302D01*
X171598Y70898D01*
X171002Y71296D01*
X170800Y71336D01*
D02*
G37*
G36*
X50700Y69164D02*
X50286Y69110D01*
X49435Y68757D01*
X48704Y68196D01*
X48143Y67465D01*
X47790Y66614D01*
X47736Y66200D01*
X50700D01*
Y69164D01*
D02*
G37*
G36*
X45900Y66436D02*
Y65200D01*
X47136D01*
X47096Y65402D01*
X46698Y65998D01*
X46102Y66396D01*
X45900Y66436D01*
D02*
G37*
G36*
X130600Y73653D02*
X129898Y73514D01*
X129302Y73116D01*
X128904Y72521D01*
X128765Y71818D01*
X128904Y71116D01*
X129302Y70520D01*
X129898Y70123D01*
X130600Y69983D01*
X131302Y70123D01*
X131848Y70487D01*
X159676D01*
X159736Y70406D01*
X159484Y69906D01*
X147462D01*
X146771Y69769D01*
X146185Y69377D01*
X142967Y66160D01*
X142900Y66173D01*
X142755Y66144D01*
X130745D01*
X130600Y66173D01*
X129898Y66033D01*
X129325Y65650D01*
X125506D01*
X119630Y71526D01*
X119496Y72202D01*
X119098Y72798D01*
X118502Y73196D01*
X117800Y73335D01*
X117098Y73196D01*
X116502Y72798D01*
X116104Y72202D01*
X115965Y71500D01*
X116104Y70798D01*
X116502Y70202D01*
X117098Y69804D01*
X117774Y69670D01*
X124034Y63410D01*
X124460Y63125D01*
X124962Y63025D01*
X129325D01*
X129898Y62642D01*
X130600Y62503D01*
X130745Y62532D01*
X142208D01*
X142209Y62531D01*
X142900Y62394D01*
X143562D01*
X144253Y62531D01*
X144840Y62923D01*
X148210Y66294D01*
X152130D01*
X152282Y65794D01*
X152030Y65626D01*
X151632Y65030D01*
X151592Y64828D01*
X153328D01*
Y63828D01*
X151592D01*
X151632Y63626D01*
X152030Y63030D01*
X152626Y62632D01*
X152731Y62611D01*
X152877Y62133D01*
X149456Y58713D01*
X125944D01*
X117090Y67566D01*
X116665Y67851D01*
X116162Y67950D01*
X95885D01*
X95383Y67851D01*
X94957Y67566D01*
X90713Y63322D01*
X90213Y63529D01*
Y67925D01*
X90596Y68498D01*
X90735Y69200D01*
X90596Y69902D01*
X90198Y70498D01*
X89602Y70896D01*
X88900Y71035D01*
X88198Y70896D01*
X87602Y70498D01*
X87204Y69902D01*
X87065Y69200D01*
X87204Y68498D01*
X87587Y67925D01*
Y63801D01*
X80099Y56313D01*
X58500D01*
X57998Y56213D01*
X57572Y55928D01*
X54572Y52928D01*
X54287Y52502D01*
X54187Y52000D01*
Y36921D01*
X54287Y36419D01*
X54572Y35993D01*
X57894Y32671D01*
X58028Y31995D01*
X58426Y31400D01*
X59021Y31002D01*
X59724Y30862D01*
X60426Y31002D01*
X61021Y31400D01*
X61419Y31995D01*
X61559Y32698D01*
X61419Y33400D01*
X61021Y33995D01*
X60426Y34393D01*
X59841Y34510D01*
X59668Y34783D01*
X59677Y34861D01*
X59881Y35296D01*
X60426Y35404D01*
X60999Y35787D01*
X72214D01*
X72421Y35287D01*
X60946Y23813D01*
X58475D01*
X57902Y24196D01*
X57200Y24335D01*
X56498Y24196D01*
X55902Y23798D01*
X55504Y23202D01*
X55365Y22500D01*
X55504Y21798D01*
X55902Y21202D01*
X56498Y20804D01*
X57200Y20665D01*
X57349Y20516D01*
X57276Y20150D01*
X57416Y19448D01*
X57814Y18852D01*
X58410Y18454D01*
X58948Y18347D01*
X59251Y18108D01*
X59415Y17865D01*
X59528Y17298D01*
X59926Y16702D01*
X60521Y16304D01*
X60831Y16243D01*
X61061Y15687D01*
X61004Y15602D01*
X60964Y15400D01*
X64436D01*
X64396Y15602D01*
X64005Y16187D01*
X64017Y16253D01*
X64165Y16687D01*
X69300D01*
X69802Y16787D01*
X70228Y17072D01*
X75021Y21865D01*
X75435Y21740D01*
X75527Y21664D01*
X75902Y21102D01*
X76498Y20704D01*
X77200Y20565D01*
X77384Y20601D01*
X77504Y19998D01*
X77902Y19402D01*
X78498Y19004D01*
X79200Y18865D01*
X79902Y19004D01*
X80498Y19402D01*
X80896Y19998D01*
X81030Y20674D01*
X93528Y33172D01*
X93813Y33598D01*
X93913Y34100D01*
Y37937D01*
X94296Y38510D01*
X94435Y39212D01*
X94296Y39914D01*
X93898Y40510D01*
X93302Y40907D01*
X92600Y41047D01*
X92352Y40998D01*
X92052Y41448D01*
X92096Y41513D01*
X92235Y42216D01*
X92096Y42918D01*
X91698Y43514D01*
X91102Y43911D01*
X90400Y44051D01*
X89988Y43969D01*
X89850Y44079D01*
X89620Y44406D01*
X89735Y44984D01*
X89596Y45687D01*
X89466Y45880D01*
X89204Y46292D01*
X89466Y46704D01*
X89596Y46898D01*
X89735Y47600D01*
X89596Y48302D01*
X89198Y48898D01*
X88602Y49296D01*
X87900Y49435D01*
X87198Y49296D01*
X86625Y48913D01*
X83380D01*
X82878Y48813D01*
X82452Y48528D01*
X72336Y38413D01*
X60999D01*
X60426Y38796D01*
X59724Y38935D01*
X59021Y38796D01*
X58426Y38398D01*
X58028Y37802D01*
X57888Y37100D01*
X57889Y37095D01*
X57428Y36849D01*
X56813Y37465D01*
Y51068D01*
X56875Y51105D01*
X57433Y50857D01*
X57504Y50498D01*
X57902Y49902D01*
X58498Y49504D01*
X59200Y49365D01*
X59902Y49504D01*
X60475Y49887D01*
X80447D01*
X80950Y49987D01*
X81375Y50272D01*
X96429Y65325D01*
X102590D01*
X102692Y64825D01*
X102202Y64498D01*
X101804Y63902D01*
X101764Y63700D01*
X105236D01*
X105196Y63902D01*
X104798Y64498D01*
X104308Y64825D01*
X104410Y65325D01*
X115619D01*
X119931Y61013D01*
X119724Y60513D01*
X104775D01*
X104202Y60896D01*
X103953Y60945D01*
Y61455D01*
X104202Y61504D01*
X104798Y61902D01*
X105196Y62498D01*
X105236Y62700D01*
X101764D01*
X101804Y62498D01*
X102202Y61902D01*
X102798Y61504D01*
X103047Y61455D01*
Y60945D01*
X102798Y60896D01*
X102202Y60498D01*
X101804Y59902D01*
X101665Y59200D01*
X101804Y58498D01*
X101838Y58447D01*
X101602Y58006D01*
X91535D01*
X91390Y58035D01*
X90688Y57896D01*
X90092Y57498D01*
X89694Y56902D01*
X89555Y56200D01*
X89694Y55498D01*
X90092Y54902D01*
X90688Y54504D01*
X91390Y54365D01*
X91535Y54394D01*
X103355D01*
X103500Y54365D01*
X104202Y54504D01*
X104798Y54902D01*
X105196Y55498D01*
X105335Y56200D01*
X105196Y56902D01*
X104871Y57387D01*
X105006Y57772D01*
X105093Y57887D01*
X119704D01*
X124420Y53172D01*
X124846Y52887D01*
X125348Y52787D01*
X138806D01*
X139379Y52404D01*
X140081Y52265D01*
X140784Y52404D01*
X141379Y52802D01*
X141777Y53398D01*
X141917Y54100D01*
X141777Y54802D01*
X141379Y55398D01*
X141095Y55587D01*
X141247Y56087D01*
X150000D01*
X150155Y56118D01*
X150401Y55657D01*
X143456Y48713D01*
X117547D01*
X117045Y48613D01*
X116619Y48328D01*
X109576Y41285D01*
X109124Y41540D01*
X109136Y41600D01*
X107900D01*
Y40364D01*
X107960Y40376D01*
X108215Y39924D01*
X84556Y16264D01*
X84200Y16335D01*
X83498Y16196D01*
X82902Y15798D01*
X82504Y15202D01*
X82365Y14500D01*
X82504Y13798D01*
X82902Y13202D01*
X83498Y12804D01*
X84200Y12665D01*
X84902Y12804D01*
X84995Y12646D01*
X85004Y12598D01*
X85402Y12002D01*
X85998Y11604D01*
X86700Y11465D01*
X87402Y11604D01*
X87631Y11757D01*
X88002Y11202D01*
X88598Y10804D01*
X89300Y10665D01*
X89537Y10712D01*
X89965Y10300D01*
X90104Y9598D01*
X90502Y9002D01*
X91098Y8604D01*
X91300Y8564D01*
Y10300D01*
X91800D01*
Y10800D01*
X93536D01*
X93496Y11002D01*
X93098Y11598D01*
X92502Y11996D01*
X91800Y12135D01*
X91475Y12581D01*
X91466Y12810D01*
X121169Y42513D01*
X156553D01*
X157055Y42612D01*
X157481Y42897D01*
X162772Y48187D01*
X169125D01*
X169698Y47804D01*
X170163Y47712D01*
X170395Y47193D01*
X170033Y46720D01*
X169489Y45408D01*
X169304Y44000D01*
X169489Y42592D01*
X169868Y41678D01*
X159496Y31306D01*
X134745D01*
X134600Y31335D01*
X134455Y31306D01*
X129337D01*
X128646Y31169D01*
X128060Y30777D01*
X118789Y21506D01*
X118735Y21496D01*
X118139Y21098D01*
X117742Y20502D01*
X117602Y19800D01*
X117742Y19098D01*
X118139Y18502D01*
X118735Y18104D01*
X119437Y17965D01*
X119582Y17994D01*
X119637D01*
X120328Y18131D01*
X120914Y18523D01*
X130085Y27694D01*
X134455D01*
X134600Y27665D01*
X134745Y27694D01*
X148369D01*
X148636Y27194D01*
X148508Y27002D01*
X148468Y26800D01*
X151940D01*
X151900Y27002D01*
X151772Y27194D01*
X152039Y27694D01*
X160244D01*
X160935Y27831D01*
X161521Y28223D01*
X172422Y39124D01*
X173336Y38745D01*
X174744Y38560D01*
X176152Y38745D01*
X177464Y39289D01*
X178591Y40153D01*
X179455Y41280D01*
X179999Y42592D01*
X180184Y44000D01*
X179999Y45408D01*
X179455Y46720D01*
X178619Y47810D01*
X178650Y47942D01*
X178857Y48273D01*
X179400Y48165D01*
X180102Y48304D01*
X180698Y48702D01*
X181096Y49298D01*
X181235Y50000D01*
X181096Y50702D01*
X180698Y51298D01*
X180613Y51355D01*
Y56325D01*
X180996Y56898D01*
X181135Y57600D01*
X180996Y58302D01*
X180598Y58898D01*
X180002Y59296D01*
X179300Y59435D01*
X178598Y59296D01*
X178002Y58898D01*
X177604Y58302D01*
X177465Y57600D01*
X177604Y56898D01*
X177987Y56325D01*
Y51126D01*
X177704Y50702D01*
X177565Y50000D01*
X177704Y49298D01*
X177897Y49010D01*
X177527Y48663D01*
X177464Y48711D01*
X176152Y49255D01*
X176006Y49274D01*
Y61100D01*
X175869Y61791D01*
X175477Y62377D01*
X170550Y67305D01*
X170714Y67847D01*
X171002Y67904D01*
X171598Y68302D01*
X171996Y68898D01*
X172036Y69100D01*
X170300D01*
Y69600D01*
X169800D01*
Y71336D01*
X169598Y71296D01*
X169002Y70898D01*
X168604Y70302D01*
X168533Y69942D01*
X167977Y69712D01*
X167891Y69769D01*
X167200Y69906D01*
X162634D01*
X162482Y70406D01*
X162626Y70502D01*
X163023Y71098D01*
X163163Y71800D01*
X163023Y72502D01*
X162626Y73098D01*
X162030Y73496D01*
X161328Y73635D01*
X160626Y73496D01*
X160053Y73113D01*
X131900D01*
X131898Y73116D01*
X131302Y73514D01*
X130600Y73653D01*
D02*
G37*
G36*
X94700Y84936D02*
Y83700D01*
X95936D01*
X95896Y83902D01*
X95498Y84498D01*
X94902Y84896D01*
X94700Y84936D01*
D02*
G37*
G36*
X120900D02*
X120698Y84896D01*
X120102Y84498D01*
X119704Y83902D01*
X119664Y83700D01*
X120900D01*
Y84936D01*
D02*
G37*
G36*
X93700D02*
X93498Y84896D01*
X92902Y84498D01*
X92504Y83902D01*
X92464Y83700D01*
X93700D01*
Y84936D01*
D02*
G37*
G36*
X76500D02*
X76298Y84896D01*
X75702Y84498D01*
X75304Y83902D01*
X75264Y83700D01*
X76500D01*
Y84936D01*
D02*
G37*
G36*
X77500D02*
Y83700D01*
X78736D01*
X78696Y83902D01*
X78298Y84498D01*
X77702Y84896D01*
X77500Y84936D01*
D02*
G37*
G36*
X195100D02*
X194898Y84896D01*
X194302Y84498D01*
X193904Y83902D01*
X193864Y83700D01*
X195100D01*
Y84936D01*
D02*
G37*
G36*
X196100D02*
Y83700D01*
X197336D01*
X197296Y83902D01*
X196898Y84498D01*
X196302Y84896D01*
X196100Y84936D01*
D02*
G37*
G36*
X185100D02*
Y83700D01*
X186336D01*
X186296Y83902D01*
X185898Y84498D01*
X185302Y84896D01*
X185100Y84936D01*
D02*
G37*
G36*
X121900D02*
Y83700D01*
X123136D01*
X123096Y83902D01*
X122698Y84498D01*
X122102Y84896D01*
X121900Y84936D01*
D02*
G37*
G36*
X184100D02*
X183898Y84896D01*
X183302Y84498D01*
X182904Y83902D01*
X182864Y83700D01*
X184100D01*
Y84936D01*
D02*
G37*
G36*
X186336Y82700D02*
X185100D01*
Y81464D01*
X185302Y81504D01*
X185898Y81902D01*
X186296Y82498D01*
X186336Y82700D01*
D02*
G37*
G36*
X195100D02*
X193864D01*
X193904Y82498D01*
X194302Y81902D01*
X194898Y81504D01*
X195100Y81464D01*
Y82700D01*
D02*
G37*
G36*
X184100D02*
X182864D01*
X182904Y82498D01*
X183302Y81902D01*
X183898Y81504D01*
X184100Y81464D01*
Y82700D01*
D02*
G37*
G36*
X120900D02*
X119664D01*
X119704Y82498D01*
X120102Y81902D01*
X120698Y81504D01*
X120900Y81464D01*
Y82700D01*
D02*
G37*
G36*
X123136D02*
X121900D01*
Y81464D01*
X122102Y81504D01*
X122698Y81902D01*
X123096Y82498D01*
X123136Y82700D01*
D02*
G37*
G36*
X56300Y84936D02*
X56098Y84896D01*
X55502Y84498D01*
X55104Y83902D01*
X55064Y83700D01*
X56300D01*
Y84936D01*
D02*
G37*
G36*
X57300D02*
Y83700D01*
X58536D01*
X58496Y83902D01*
X58098Y84498D01*
X57502Y84896D01*
X57300Y84936D01*
D02*
G37*
G36*
X16248D02*
Y83700D01*
X17484D01*
X17444Y83902D01*
X17046Y84498D01*
X16450Y84896D01*
X16248Y84936D01*
D02*
G37*
G36*
X197336Y82700D02*
X196100D01*
Y81464D01*
X196302Y81504D01*
X196898Y81902D01*
X197296Y82498D01*
X197336Y82700D01*
D02*
G37*
G36*
X15248Y84936D02*
X15046Y84896D01*
X14450Y84498D01*
X14052Y83902D01*
X14012Y83700D01*
X15248D01*
Y84936D01*
D02*
G37*
G36*
X44900Y64200D02*
X43664D01*
X43704Y63998D01*
X44102Y63402D01*
X44698Y63004D01*
X44900Y62964D01*
Y64200D01*
D02*
G37*
G36*
X24756Y49374D02*
X23848Y49255D01*
X22536Y48711D01*
X21409Y47847D01*
X20545Y46720D01*
X20001Y45408D01*
X19882Y44500D01*
X24756D01*
Y49374D01*
D02*
G37*
G36*
X25756D02*
Y44500D01*
X30630D01*
X30511Y45408D01*
X29967Y46720D01*
X29103Y47847D01*
X27976Y48711D01*
X26664Y49255D01*
X25756Y49374D01*
D02*
G37*
G36*
X59224Y45336D02*
X59021Y45296D01*
X58426Y44898D01*
X58028Y44302D01*
X57988Y44100D01*
X59224D01*
Y45336D01*
D02*
G37*
G36*
X60224D02*
Y44100D01*
X61459D01*
X61419Y44302D01*
X61021Y44898D01*
X60426Y45296D01*
X60224Y45336D01*
D02*
G37*
G36*
X126363Y39636D02*
X126161Y39596D01*
X125565Y39198D01*
X125167Y38602D01*
X125127Y38400D01*
X126363D01*
Y39636D01*
D02*
G37*
G36*
X4336Y49400D02*
X3100D01*
Y48164D01*
X3302Y48204D01*
X3898Y48602D01*
X4296Y49198D01*
X4336Y49400D01*
D02*
G37*
G36*
X113136Y48200D02*
X111900D01*
X111940Y47998D01*
X112338Y47402D01*
X112934Y47004D01*
X113136Y46964D01*
Y48200D01*
D02*
G37*
G36*
X115372D02*
X114136D01*
Y46964D01*
X114338Y47004D01*
X114934Y47402D01*
X115331Y47998D01*
X115372Y48200D01*
D02*
G37*
G36*
X107900Y43836D02*
Y42600D01*
X109136D01*
X109096Y42802D01*
X108698Y43398D01*
X108102Y43796D01*
X107900Y43836D01*
D02*
G37*
G36*
X24756Y43500D02*
X19882D01*
X20001Y42592D01*
X20545Y41280D01*
X21409Y40153D01*
X22536Y39289D01*
X23848Y38745D01*
X24756Y38626D01*
Y43500D01*
D02*
G37*
G36*
X127363Y39636D02*
Y38400D01*
X128599D01*
X128559Y38602D01*
X128161Y39198D01*
X127565Y39596D01*
X127363Y39636D01*
D02*
G37*
G36*
X30630Y43500D02*
X25756D01*
Y38626D01*
X26664Y38745D01*
X27976Y39289D01*
X29103Y40153D01*
X29967Y41280D01*
X30511Y42592D01*
X30630Y43500D01*
D02*
G37*
G36*
X193787Y48012D02*
X185881D01*
Y40106D01*
X193787D01*
Y48012D01*
D02*
G37*
G36*
X61459Y43100D02*
X60224D01*
Y41864D01*
X60426Y41904D01*
X61021Y42302D01*
X61419Y42898D01*
X61459Y43100D01*
D02*
G37*
G36*
X106900Y43836D02*
X106698Y43796D01*
X106102Y43398D01*
X105704Y42802D01*
X105664Y42600D01*
X106900D01*
Y43836D01*
D02*
G37*
G36*
Y41600D02*
X105664D01*
X105704Y41398D01*
X106102Y40802D01*
X106698Y40404D01*
X106900Y40364D01*
Y41600D01*
D02*
G37*
G36*
X59224Y43100D02*
X57988D01*
X58028Y42898D01*
X58426Y42302D01*
X59021Y41904D01*
X59224Y41864D01*
Y43100D01*
D02*
G37*
G36*
X113136Y50436D02*
X112934Y50396D01*
X112338Y49998D01*
X111940Y49402D01*
X111900Y49200D01*
X113136D01*
Y50436D01*
D02*
G37*
G36*
X80065Y61435D02*
X79919Y61406D01*
X20800D01*
X20109Y61269D01*
X19523Y60877D01*
X9925Y51280D01*
X9802Y51198D01*
X9404Y50602D01*
X9265Y49900D01*
X9404Y49198D01*
X9787Y48625D01*
Y23177D01*
X9887Y22675D01*
X10172Y22249D01*
X10570Y21851D01*
X10704Y21175D01*
X11102Y20580D01*
X11698Y20182D01*
X12400Y20042D01*
X13102Y20182D01*
X13698Y20580D01*
X14096Y21175D01*
X14235Y21877D01*
X14096Y22580D01*
X13698Y23175D01*
X13102Y23573D01*
X12426Y23707D01*
X12413Y23721D01*
Y48625D01*
X12480Y48725D01*
X21548Y57794D01*
X79919D01*
X80065Y57765D01*
X80767Y57904D01*
X81362Y58302D01*
X81760Y58898D01*
X81900Y59600D01*
X81760Y60302D01*
X81362Y60898D01*
X80767Y61296D01*
X80065Y61435D01*
D02*
G37*
G36*
X30736Y64200D02*
X29500D01*
Y62964D01*
X29702Y63004D01*
X30298Y63402D01*
X30696Y63998D01*
X30736Y64200D01*
D02*
G37*
G36*
X121200Y54936D02*
Y53700D01*
X122436D01*
X122396Y53902D01*
X121998Y54498D01*
X121402Y54896D01*
X121200Y54936D01*
D02*
G37*
G36*
X50100Y78986D02*
X49398Y78846D01*
X48802Y78448D01*
X48404Y77853D01*
X48265Y77151D01*
X48404Y76448D01*
X48802Y75853D01*
X48925Y75771D01*
X62002Y62694D01*
X62588Y62303D01*
X63279Y62165D01*
X79919D01*
X80065Y62136D01*
X80767Y62276D01*
X81362Y62674D01*
X81760Y63269D01*
X81900Y63972D01*
X81760Y64674D01*
X81362Y65269D01*
X80767Y65667D01*
X80065Y65807D01*
X79919Y65778D01*
X64027D01*
X51480Y78325D01*
X51398Y78448D01*
X50802Y78846D01*
X50100Y78986D01*
D02*
G37*
G36*
X28500Y64200D02*
X27264D01*
X27304Y63998D01*
X27702Y63402D01*
X28298Y63004D01*
X28500Y62964D01*
Y64200D01*
D02*
G37*
G36*
X54664Y65200D02*
X51700D01*
Y62236D01*
X52114Y62290D01*
X52965Y62643D01*
X53696Y63204D01*
X54257Y63935D01*
X54610Y64786D01*
X54664Y65200D01*
D02*
G37*
G36*
X50700D02*
X47736D01*
X47790Y64786D01*
X48143Y63935D01*
X48704Y63204D01*
X49435Y62643D01*
X50286Y62290D01*
X50700Y62236D01*
Y65200D01*
D02*
G37*
G36*
X114136Y50436D02*
Y49200D01*
X115372D01*
X115331Y49402D01*
X114934Y49998D01*
X114338Y50396D01*
X114136Y50436D01*
D02*
G37*
G36*
X189834Y58046D02*
X188802Y57910D01*
X187841Y57512D01*
X187015Y56878D01*
X186381Y56053D01*
X185983Y55091D01*
X185847Y54059D01*
X185983Y53027D01*
X186381Y52066D01*
X187015Y51240D01*
X187841Y50606D01*
X188802Y50208D01*
X189834Y50072D01*
X190866Y50208D01*
X191828Y50606D01*
X192653Y51240D01*
X193287Y52066D01*
X193685Y53027D01*
X193821Y54059D01*
X193685Y55091D01*
X193287Y56053D01*
X192653Y56878D01*
X191828Y57512D01*
X190866Y57910D01*
X189834Y58046D01*
D02*
G37*
G36*
X3100Y51636D02*
Y50400D01*
X4336D01*
X4296Y50602D01*
X3898Y51198D01*
X3302Y51596D01*
X3100Y51636D01*
D02*
G37*
G36*
X120200Y54936D02*
X119998Y54896D01*
X119402Y54498D01*
X119004Y53902D01*
X118964Y53700D01*
X120200D01*
Y54936D01*
D02*
G37*
G36*
X122436Y52700D02*
X121200D01*
Y51464D01*
X121402Y51504D01*
X121998Y51902D01*
X122396Y52498D01*
X122436Y52700D01*
D02*
G37*
G36*
X120200D02*
X118964D01*
X119004Y52498D01*
X119402Y51902D01*
X119998Y51504D01*
X120200Y51464D01*
Y52700D01*
D02*
G37*
%LPD*%
G36*
X87198Y43289D02*
X87900Y43149D01*
X88312Y43231D01*
X88450Y43121D01*
X88680Y42794D01*
X88565Y42216D01*
X88704Y41513D01*
X88987Y41090D01*
Y36044D01*
X81379Y28435D01*
X80965Y28560D01*
X80873Y28636D01*
X80498Y29198D01*
X79902Y29596D01*
X79443Y29687D01*
X79030Y30172D01*
X79035Y30200D01*
X78896Y30902D01*
X78498Y31498D01*
X77902Y31896D01*
X77200Y32035D01*
X76498Y31896D01*
X75902Y31498D01*
X75504Y30902D01*
X75370Y30226D01*
X66969Y21825D01*
X63325D01*
X63134Y22287D01*
X78356Y37510D01*
X78375Y37500D01*
X80100D01*
Y39225D01*
X80090Y39244D01*
X84234Y43387D01*
X87050D01*
X87198Y43289D01*
D02*
G37*
G36*
X165341Y59755D02*
X165295Y59259D01*
X164872Y59048D01*
X164502Y59296D01*
X164300Y59336D01*
Y57600D01*
Y55864D01*
X164502Y55904D01*
X164887Y56162D01*
X165387Y55904D01*
Y53875D01*
X165004Y53302D01*
X164865Y52600D01*
X165004Y51898D01*
X165395Y51313D01*
X165383Y51247D01*
X165235Y50813D01*
X162228D01*
X161726Y50713D01*
X161300Y50428D01*
X156009Y45138D01*
X148183D01*
X147992Y45600D01*
X151173Y48781D01*
X151754Y48655D01*
X152030Y48242D01*
X152626Y47844D01*
X152828Y47804D01*
Y49540D01*
X153328D01*
Y50040D01*
X155064D01*
X155024Y50242D01*
X154626Y50837D01*
X154212Y51113D01*
X154087Y51695D01*
X159880Y57489D01*
X160000Y57465D01*
X160702Y57604D01*
X161298Y58002D01*
X161696Y58598D01*
X161835Y59300D01*
X161696Y60002D01*
X161298Y60598D01*
X160702Y60996D01*
X160000Y61135D01*
X159495Y61035D01*
X159319Y61510D01*
X159601Y61947D01*
X163150D01*
X165341Y59755D01*
D02*
G37*
G36*
X172394Y60352D02*
Y50656D01*
X171894Y50504D01*
X171698Y50798D01*
X171102Y51196D01*
X170400Y51335D01*
X169698Y51196D01*
X169125Y50813D01*
X168165D01*
X168017Y51247D01*
X168005Y51313D01*
X168396Y51898D01*
X168535Y52600D01*
X168396Y53302D01*
X168013Y53875D01*
Y60253D01*
X167913Y60755D01*
X167628Y61181D01*
X164621Y64188D01*
X164196Y64472D01*
X163693Y64572D01*
X155859D01*
X155633Y64527D01*
X155063Y64831D01*
X155024Y65030D01*
X154626Y65626D01*
X154374Y65794D01*
X154526Y66294D01*
X166452D01*
X172394Y60352D01*
D02*
G37*
%LPC*%
G36*
X81100Y38736D02*
Y37500D01*
X82336D01*
X82296Y37702D01*
X81898Y38298D01*
X81302Y38696D01*
X81100Y38736D01*
D02*
G37*
G36*
X82336Y36500D02*
X81100D01*
Y35264D01*
X81302Y35304D01*
X81898Y35702D01*
X82296Y36298D01*
X82336Y36500D01*
D02*
G37*
G36*
X80100D02*
X78864D01*
X78904Y36298D01*
X79302Y35702D01*
X79898Y35304D01*
X80100Y35264D01*
Y36500D01*
D02*
G37*
G36*
X163300Y57100D02*
X162064D01*
X162104Y56898D01*
X162502Y56302D01*
X163098Y55904D01*
X163300Y55864D01*
Y57100D01*
D02*
G37*
G36*
Y59336D02*
X163098Y59296D01*
X162502Y58898D01*
X162104Y58302D01*
X162064Y58100D01*
X163300D01*
Y59336D01*
D02*
G37*
G36*
X155064Y49040D02*
X153828D01*
Y47804D01*
X154030Y47844D01*
X154626Y48242D01*
X155024Y48837D01*
X155064Y49040D01*
D02*
G37*
%LPD*%
D32*
X87300Y44700D02*
X87900Y45300D01*
X92600Y34100D02*
Y39212D01*
X90300Y35500D02*
Y42116D01*
X77200Y22400D02*
X90300Y35500D01*
X79200Y20700D02*
X92600Y34100D01*
X83380Y47600D02*
X87900D01*
X72880Y37100D02*
X83380Y47600D01*
X83690Y44700D02*
X87300D01*
X61490Y22500D02*
X83690Y44700D01*
X179000Y50000D02*
X179300Y50300D01*
X80643Y55000D02*
X88900Y63257D01*
X58500Y55000D02*
X80643D01*
X88900Y63257D02*
Y69200D01*
X59200Y51200D02*
X80447D01*
X59913Y20513D02*
X67513D01*
X57200Y22500D02*
X61490D01*
X2400Y10740D02*
Y26800D01*
X52139Y4939D02*
X57200Y10000D01*
X16800Y4939D02*
X52139D01*
X179300Y50300D02*
Y57600D01*
X150000Y57400D02*
X155859Y63259D01*
X125400Y57400D02*
X150000D01*
X116162Y66638D02*
X125400Y57400D01*
X120248Y59200D02*
X125348Y54100D01*
X95885Y66638D02*
X116162D01*
X125348Y54100D02*
X140081D01*
X155859Y63259D02*
X163693D01*
X166700Y60253D01*
X159836Y59300D02*
X160000D01*
X146148Y45613D02*
X159836Y59300D01*
X119160Y45613D02*
X146148D01*
X144000Y47400D02*
X157541Y60941D01*
Y60959D01*
X174200Y44544D02*
X174744Y44000D01*
X162228Y49500D02*
X170400D01*
X156553Y43825D02*
X162228Y49500D01*
X166700Y52600D02*
Y60253D01*
X78500Y6139D02*
X119339D01*
X137500Y24300D01*
X130600Y71818D02*
X130618Y71800D01*
X161328D01*
X120625Y43825D02*
X156553D01*
X117547Y47400D02*
X144000D01*
X103500Y59200D02*
X120248D01*
X117800Y71500D02*
X124962Y64338D01*
X130100D01*
X80447Y51200D02*
X95885Y66638D01*
X61224Y18000D02*
X69300D01*
X84647Y14500D02*
X117547Y47400D01*
X84200Y14500D02*
X84647D01*
X52000Y16300D02*
Y17735D01*
X51200Y21063D02*
X69863Y2400D01*
X48900Y20835D02*
X52000Y17735D01*
X48900Y20835D02*
Y49043D01*
X48300Y49643D02*
X48900Y49043D01*
X69300Y18000D02*
X79200Y27900D01*
X59724Y37100D02*
X72880D01*
X143500Y2400D02*
X170300Y29200D01*
X55500Y36921D02*
X59724Y32698D01*
X55500Y36921D02*
Y52000D01*
X58500Y55000D01*
X59400Y20000D02*
X59913Y20513D01*
X67513D02*
X77200Y30200D01*
X89300Y12500D02*
X120625Y43825D01*
X86847Y13300D02*
X119160Y45613D01*
X137500Y24300D02*
Y24506D01*
X16800Y4939D02*
Y31877D01*
X11100Y23177D02*
X12400Y21877D01*
X11100Y23177D02*
Y49900D01*
X51200Y21063D02*
Y36500D01*
X69863Y2400D02*
X143500D01*
D33*
X142900Y64200D02*
X143562D01*
X91390Y56200D02*
X103500D01*
X174200Y44544D02*
Y61100D01*
X167200Y68100D02*
X174200Y61100D01*
X147462Y68100D02*
X167200D01*
X130600Y64338D02*
X142900D01*
X143562Y64200D02*
X147462Y68100D01*
X142900Y64338D02*
X143600D01*
X50100Y77151D02*
X63279Y63972D01*
X80065D01*
X134600Y29500D02*
X160244D01*
X129337D02*
X134600D01*
X160244D02*
X174744Y44000D01*
X119437Y19800D02*
X119637D01*
X129337Y29500D01*
X11100Y49900D02*
X20800Y59600D01*
X80065D01*
D34*
X25256Y44000D02*
D03*
X174744D02*
D03*
D35*
X133858Y80600D02*
D03*
X149606D02*
D03*
D36*
X189834Y44059D02*
D03*
D37*
Y54059D02*
D03*
D38*
X92600Y39212D02*
D03*
X90400Y42216D02*
D03*
X87900Y47600D02*
D03*
Y44984D02*
D03*
X88900Y69200D02*
D03*
X34000Y36700D02*
D03*
X59200Y51200D02*
D03*
X2400Y26800D02*
D03*
Y10740D02*
D03*
X12400Y16900D02*
D03*
X98800Y35300D02*
D03*
X57200Y10000D02*
D03*
X179400Y50000D02*
D03*
X179300Y57600D02*
D03*
X163800D02*
D03*
X160000Y59300D02*
D03*
X157541Y60959D02*
D03*
X150204Y26300D02*
D03*
X170300Y69600D02*
D03*
X170400Y49500D02*
D03*
X166700Y52600D02*
D03*
X119800Y12500D02*
D03*
X98900D02*
D03*
X91800Y10300D02*
D03*
X161328Y71800D02*
D03*
X130600Y71818D02*
D03*
X153328Y64328D02*
D03*
Y49540D02*
D03*
X140081Y54100D02*
D03*
X142900Y64338D02*
D03*
X117800Y71500D02*
D03*
X130600Y64338D02*
D03*
X61224Y18000D02*
D03*
X86700Y13300D02*
D03*
X103500Y59200D02*
D03*
X170200Y4400D02*
D03*
X125100Y6200D02*
D03*
X138200Y12000D02*
D03*
X62700Y14900D02*
D03*
X80600Y37000D02*
D03*
X103500Y63200D02*
D03*
X52000Y16300D02*
D03*
X47400Y16376D02*
D03*
X20800Y19000D02*
D03*
Y25600D02*
D03*
X48300Y49643D02*
D03*
X51200Y36500D02*
D03*
X107400Y42100D02*
D03*
X57200Y6400D02*
D03*
X195600Y26600D02*
D03*
Y19800D02*
D03*
Y83200D02*
D03*
X184600D02*
D03*
X150204Y19800D02*
D03*
X56800Y83200D02*
D03*
X121400D02*
D03*
X94200D02*
D03*
X170300Y19800D02*
D03*
X77200Y22400D02*
D03*
X79200Y27900D02*
D03*
X59724Y37100D02*
D03*
Y43600D02*
D03*
X170300Y29200D02*
D03*
X59724Y32698D02*
D03*
X80065Y63972D02*
D03*
X50100Y77151D02*
D03*
X103500Y56200D02*
D03*
X59724Y27500D02*
D03*
X59112Y20150D02*
D03*
X15748Y83200D02*
D03*
X11100Y49900D02*
D03*
X91390Y56200D02*
D03*
X80065Y59600D02*
D03*
X29000Y64700D02*
D03*
X45400D02*
D03*
X77000Y83200D02*
D03*
X2600Y49900D02*
D03*
X113636Y48700D02*
D03*
X120700Y53200D02*
D03*
X57200Y22500D02*
D03*
X79200Y20700D02*
D03*
X77200Y30200D02*
D03*
X84200Y14500D02*
D03*
X89300Y12500D02*
D03*
X78500Y6139D02*
D03*
X119437Y19800D02*
D03*
X137500Y24506D02*
D03*
X134600Y29500D02*
D03*
X16800Y31877D02*
D03*
Y4939D02*
D03*
X12400Y21877D02*
D03*
X111996Y24100D02*
D03*
X126863Y37900D02*
D03*
D39*
X51200Y65700D02*
D03*
M02*
