G04 Layer_Color=8388736*
%FSLAX25Y25*%
%MOIN*%
G70*
G01*
G75*
%ADD44R,0.04800X0.04800*%
%ADD45R,0.03556X0.04343*%
%ADD46R,0.04800X0.04800*%
%ADD47R,0.05800X0.04400*%
%ADD48R,0.04400X0.04400*%
%ADD49R,0.04343X0.03950*%
%ADD50R,0.01981X0.03753*%
%ADD51R,0.03556X0.04343*%
%ADD52R,0.06902X0.03162*%
%ADD53R,0.05800X0.05800*%
%ADD54R,0.04343X0.03556*%
%ADD55R,0.01784X0.01883*%
%ADD56R,0.01883X0.01784*%
%ADD57R,0.02375X0.03162*%
%ADD58R,0.07887X0.01981*%
%ADD59R,0.07099X0.11824*%
%ADD60R,0.05800X0.05800*%
%ADD61R,0.03162X0.02375*%
%ADD62R,0.07099X0.14579*%
%ADD63R,0.14579X0.07099*%
%ADD64R,0.07099X0.08674*%
%ADD65R,0.03556X0.07099*%
%ADD66C,0.06800*%
%ADD67C,0.06587*%
%ADD68R,0.06706X0.06706*%
%ADD69C,0.06706*%
D44*
X40757Y58100D02*
D03*
X46757D02*
D03*
X90100Y6900D02*
D03*
X84100D02*
D03*
X177399Y77100D02*
D03*
X171399D02*
D03*
X189200D02*
D03*
X183200D02*
D03*
X12119Y10740D02*
D03*
X6119D02*
D03*
X12119Y4939D02*
D03*
X6119D02*
D03*
D45*
X34200Y58328D02*
D03*
Y53210D02*
D03*
X145408Y21159D02*
D03*
Y26277D02*
D03*
X83328Y63972D02*
D03*
Y69090D02*
D03*
D46*
X84200Y24300D02*
D03*
Y18300D02*
D03*
X114301Y65569D02*
D03*
Y71569D02*
D03*
Y59768D02*
D03*
Y53768D02*
D03*
X108500Y59768D02*
D03*
Y53768D02*
D03*
Y65569D02*
D03*
Y71569D02*
D03*
X90001Y24300D02*
D03*
Y18300D02*
D03*
X83928Y74662D02*
D03*
Y80662D02*
D03*
D47*
X161328Y53240D02*
D03*
Y68028D02*
D03*
D48*
X153328Y49540D02*
D03*
Y57040D02*
D03*
Y64328D02*
D03*
Y71828D02*
D03*
D49*
X126863Y71818D02*
D03*
Y64338D02*
D03*
X134737Y68078D02*
D03*
X126863Y57030D02*
D03*
Y49549D02*
D03*
X134737Y53290D02*
D03*
X140081Y57030D02*
D03*
Y49549D02*
D03*
X147955Y53290D02*
D03*
X140081Y71818D02*
D03*
Y64338D02*
D03*
X147955Y68078D02*
D03*
X104966Y18840D02*
D03*
Y11360D02*
D03*
X112840Y15100D02*
D03*
D50*
X135634Y15580D02*
D03*
X138193Y8100D02*
D03*
X140752Y15580D02*
D03*
X135634Y8100D02*
D03*
X140752D02*
D03*
D51*
X24591Y4862D02*
D03*
X30103D02*
D03*
X24591Y10663D02*
D03*
X30103D02*
D03*
D52*
X7170Y31877D02*
D03*
Y26877D02*
D03*
Y21877D02*
D03*
Y16877D02*
D03*
X28430D02*
D03*
Y21877D02*
D03*
Y26877D02*
D03*
Y31877D02*
D03*
D53*
X105695Y28205D02*
D03*
Y36205D02*
D03*
D54*
X129433Y13513D02*
D03*
Y8002D02*
D03*
X117797Y37327D02*
D03*
Y31815D02*
D03*
X111996D02*
D03*
Y37327D02*
D03*
X145581Y8002D02*
D03*
Y13513D02*
D03*
D55*
X101768Y41047D02*
D03*
X99799D02*
D03*
Y46953D02*
D03*
X101768D02*
D03*
D56*
X97830Y43016D02*
D03*
Y44984D02*
D03*
Y46953D02*
D03*
X103736Y44984D02*
D03*
Y43016D02*
D03*
Y41047D02*
D03*
Y46953D02*
D03*
X97830Y41047D02*
D03*
D57*
X163402Y43800D02*
D03*
X167732D02*
D03*
D58*
X71434Y6139D02*
D03*
Y8698D02*
D03*
Y11258D02*
D03*
Y13817D02*
D03*
Y16376D02*
D03*
Y18935D02*
D03*
Y21494D02*
D03*
Y24053D02*
D03*
Y26612D02*
D03*
Y29171D02*
D03*
Y31730D02*
D03*
Y34289D02*
D03*
Y36848D02*
D03*
Y39407D02*
D03*
Y41966D02*
D03*
Y44525D02*
D03*
Y47084D02*
D03*
Y49643D02*
D03*
Y52202D02*
D03*
X42300Y6139D02*
D03*
Y8698D02*
D03*
Y11258D02*
D03*
Y13817D02*
D03*
Y16376D02*
D03*
Y18935D02*
D03*
Y21494D02*
D03*
Y24053D02*
D03*
Y26612D02*
D03*
Y29171D02*
D03*
Y31730D02*
D03*
Y34289D02*
D03*
Y36848D02*
D03*
Y39407D02*
D03*
Y41966D02*
D03*
Y44525D02*
D03*
Y47084D02*
D03*
Y49643D02*
D03*
Y52202D02*
D03*
D59*
X44870Y77151D02*
D03*
X66130D02*
D03*
D60*
X97029Y64700D02*
D03*
X89029D02*
D03*
D61*
X141026Y24506D02*
D03*
Y20175D02*
D03*
D62*
X7269Y75773D02*
D03*
X28528D02*
D03*
D63*
X11009Y62830D02*
D03*
Y41570D02*
D03*
D64*
X153543Y33913D02*
D03*
X187795D02*
D03*
Y12259D02*
D03*
X153543D02*
D03*
D65*
X176969Y34700D02*
D03*
X173819D02*
D03*
X170669D02*
D03*
X167520D02*
D03*
X164370D02*
D03*
D66*
X133858Y80600D02*
D03*
X149606D02*
D03*
D67*
X174744Y44000D02*
D03*
X25256D02*
D03*
D68*
X189834Y44059D02*
D03*
D69*
Y54059D02*
D03*
M02*
